<?xml version="1.0" encoding="UTF-8" standalone="no"?>
<svg
   version="1.1"
   width="419.9890mm"
   height="297.0022mm"
   viewBox="0.0000 0.0000 419.9890 297.0022"
   id="svg1003"
   sodipodi:docname="sbr-Edge_Cuts.svg"
   inkscape:version="1.3 (0e150ed6c4, 2023-07-21)"
   xmlns:inkscape="http://www.inkscape.org/namespaces/inkscape"
   xmlns:sodipodi="http://sodipodi.sourceforge.net/DTD/sodipodi-0.dtd"
   xmlns="http://www.w3.org/2000/svg"
   xmlns:svg="http://www.w3.org/2000/svg"
   xmlns:rdf="http://www.w3.org/1999/02/22-rdf-syntax-ns#"
   xmlns:cc="http://creativecommons.org/ns#"
   xmlns:dc="http://purl.org/dc/elements/1.1/">
  <defs
     id="defs1003" />
  <sodipodi:namedview
     id="namedview1003"
     pagecolor="#ffffff"
     bordercolor="#000000"
     borderopacity="0.25"
     inkscape:showpageshadow="2"
     inkscape:pageopacity="0.0"
     inkscape:pagecheckerboard="0"
     inkscape:deskcolor="#d1d1d1"
     inkscape:document-units="mm"
     inkscape:zoom="0.7087239"
     inkscape:cx="676.56813"
     inkscape:cy="479.02999"
     inkscape:window-width="1920"
     inkscape:window-height="1009"
     inkscape:window-x="-8"
     inkscape:window-y="-8"
     inkscape:window-maximized="1"
     inkscape:current-layer="layer1" />
  <title
     id="title1">SVG Image created as sbr-Edge_Cuts.svg date 2024/04/09 17:40:31 </title>
  <desc
     id="desc1">Image generated by PCBNEW </desc>
  <metadata
     id="metadata1003">
    <rdf:RDF>
      <cc:Work
         rdf:about="">
        <dc:title>SVG Image created as sbr-Edge_Cuts.svg date 2024/04/09 17:40:31 </dc:title>
      </cc:Work>
    </rdf:RDF>
  </metadata>
  <g
     inkscape:groupmode="layer"
     id="layer2"
     inkscape:label="CUT2"
     style="display:inline">
    <path
       id="path986"
       style="fill:#0000ff;fill-opacity:0;stroke:#0000ff;stroke-width:0.1;stroke-linecap:round;stroke-linejoin:round;stroke-opacity:1"
       d="m 353.665,124.8865 a 2.23245,2.23245 0 0 0 -4.4649,0 m -2.53,26.045 h 9.0786 m -11.7576,-41.672 v 3.2743 m 11.2729,31.4028 v 0.7441 m 2.4999,-37.9512 v -0.893 m -105.3913,53.975 -33.02,19.05 m 135.9113,-72.2809 h -1.5989 m -9.6738,40.779 v 3.2742 m -10e-5,-22.3243 v 3.2743 m 5.209,-6.6973 v 2.5301 m 8.5639,16.52 a 1.25,1.25 0 0 0 -2.5,0 m -1.5989,-1e-4 v 0.7442 m 1.5988,-19.7942 v 0.7441 m 2.4194,-15.6269 h 3.2743 m -57.15,-36.5522 53.3111,10.314 m -10.4486,47.8183 v 0.2976 m 0,0 h 9.0785 m -9.0785,-23.5148 v 0.8929 m 14.2875,38.8442 v 6.6278 m -14.2875,-27.3149 v 0.8929 m 11.0939,16.52 v -0.8929 m -8.5638,2.53 h -2.5301 m -2.6789,4.1672 h 2.6789 m 6.9949,-25.7473 v 0.7441 m -6.9949,-12.7992 h 9.0785 m -11.7575,-0.2976 h 2.679 m 8.5938,-6.6973 v 0.7441 m 2.4194,4.316 v -0.8929 m 0.0806,-4.1672 a 1.25,1.25 0 0 0 -2.5,0 m 2.4194,23.2172 h 3.2743 m 0,15.7758 h -3.1936 m -2.0154,-12.9481 a 2.4334,2.4334 0 0 0 1.9347,-1.9348 m 1e-4,19.0501 v -0.893 m 3.2742,-38.1 v 15.7758 m -11.7575,-19.943 v 2.5301 m -2.53,0.8929 h -2.679 m 2.679,38.1001 h -2.6789 m -124.6386,31.5019 -13.97,-8.255 m 141.2875,-42.297 h -2.679 m 16.9665,-2.53 h -3.1937 M 210.4626,73.4515 h 93.345 m 57.15,15.24 a 5.08,5.08 0 0 0 -3.8389,-4.926 M 210.4626,73.4515 a 5.08,5.08 0 0 0 -5.08,5.08 m 150.495,81.28 h -103.505 m 96.8275,-51.4449 h -2.53 m 11.0938,17.4129 v -0.893 m -11.0938,-12.3527 v 0.2976 m 6.995,31.1051 a 2.23245,2.23245 0 0 0 -4.4649,0 m 6.5485,6.995 a 2.4333,2.4333 0 0 0 1.9347,-1.9348 m -4.0184,-43.1602 a 2.23245,2.23245 0 0 0 -4.4649,0 m -2.53,40.6301 v 0.893 m 2.53,-19.943 h -2.53 m -141.2875,43.1899 v -92.075 m 155.575,28.198 h -3.1937 m -11.0938,43.9043 v 0.2977 m 11.0133,-2.8278 h 3.2742 m -5.209,-35.2723 a 2.4334,2.4334 0 0 0 1.9347,-1.9348 m 0,19.05 v -0.8929 m -13.6922,2.5301 h 2.679 m 11.0938,-6.6973 a 1.25,1.25 0 0 0 -2.5,0 m -6.0637,19.05 v 2.5301 m 11.7574,-57.7751 v 18.038 m -5.08,53.082 a 5.0801,5.0801 0 0 0 5.08,-5.08 m -5.6937,-29.1009 h -1.5989 m 7.2926,3.4231 v 15.7758 m -5.6936,-0.1488 h -1.5989 m -10e-5,-38.8442 v 0.7441" />
    <path
       id="path987"
       style="fill:#0000ff;fill-opacity:0;stroke:#0000ff;stroke-width:0.1;stroke-linecap:round;stroke-linejoin:round;stroke-opacity:1"
       d="m 199.7208,78.4692 v 92.075 M 47.9847,83.7032 a 5.08,5.08 0 0 0 -3.8389,4.926 m 155.575,-10.16 a 5.08,5.08 0 0 0 -5.08,-5.08 m -8.89,105.41 -33.02,-19.05 m 0,0 H 49.2258 m -5.08,-5.08 a 5.08,5.08 0 0 0 5.08,5.08 m 150.495,10.795 -13.97,8.255 m -84.455,-105.41 h 93.345 m -150.495,81.28 v -66.04 m 3.8389,-4.926 53.3111,-10.314" />
  </g>
  <g
     inkscape:groupmode="layer"
     id="layer1"
     inkscape:label="CUT1"
     style="display:inline">
    <path
       style="fill:#ff0000;fill-opacity:0;stroke:#ff0000;stroke-width:0.1;stroke-linecap:round;stroke-linejoin:round;stroke-opacity:1"
       d="m 173.3287,113.1263 h 9.525 v 1.7859 h -9.525 z"
       id="path325" />
    <path
       style="fill:#ff0000;fill-opacity:0;stroke:#ff0000;stroke-width:0.1;stroke-linecap:round;stroke-linejoin:round;stroke-opacity:1"
       d="m 170.0111,77.3955 h 2.2325 v 30.2865 h -2.2325 z"
       id="path705" />
    <path
       style="fill:#ff0000;fill-opacity:0;stroke:#ff0000;stroke-width:0.1;stroke-linecap:round;stroke-linejoin:round;stroke-opacity:1"
       d="m 160.7039,114.763 h 2.8278 v 7.4414 h -2.8278 z"
       id="path387" />
    <path
       style="fill:#ff0000;fill-opacity:0;stroke:#ff0000;stroke-width:0.1;stroke-linecap:round;stroke-linejoin:round;stroke-opacity:1"
       d="m 157.5529,123.2069 h 1.786 v 5.8043 h -1.786 z"
       id="path562" />
    <path
       id="circle863"
       style="fill:#ff0000;fill-opacity:0;stroke:#ff0000;stroke-width:0.1;stroke-linecap:round;stroke-linejoin:round"
       d="m 164.4558,127.9992 a 2.2,2.2 0 0 1 -2.2,2.2 2.2,2.2 0 0 1 -2.2,-2.2 2.2,2.2 0 0 1 2.2,-2.2 2.2,2.2 0 0 1 2.2,2.2 z" />
    <path
       style="fill:#ff0000;fill-opacity:0;stroke:#ff0000;stroke-width:0.1;stroke-linecap:round;stroke-linejoin:round;stroke-opacity:1"
       d="m 176.6584,143.2895 -0.8929,1.5466 -5.0267,-2.9021 0.893,-1.5467 z"
       id="path981" />
    <path
       style="fill:#ff0000;fill-opacity:0;stroke:#ff0000;stroke-width:0.1;stroke-linecap:round;stroke-linejoin:round;stroke-opacity:1"
       d="m 166.5,146.9722 -3.7207,6.4445 -3.1133,-1.786 3.7207,-6.4444 z"
       id="path220" />
    <path
       style="fill:#ff0000;fill-opacity:0;stroke:#ff0000;stroke-width:0.1;stroke-linecap:round;stroke-linejoin:round;stroke-opacity:1"
       d="m 151.8379,140.3519 h 1.786 v 5.8043 h -1.786 z"
       id="path303" />
    <path
       id="circle316"
       style="fill:#ff0000;fill-opacity:0;stroke:#ff0000;stroke-width:0.1;stroke-linecap:round;stroke-linejoin:round"
       d="m 149.5358,149.5892 a 1.25,1.25 0 0 1 -1.25,1.25 1.25,1.25 0 0 1 -1.25,-1.25 1.25,1.25 0 0 1 1.25,-1.25 1.25,1.25 0 0 1 1.25,1.25 z" />
    <path
       style="fill:#ff0000;fill-opacity:0;stroke:#ff0000;stroke-width:0.1;stroke-linecap:round;stroke-linejoin:round;stroke-opacity:1"
       d="m 145.2001,123.0978 h 7.4414 v 3.4231 h -7.4414 z"
       id="path513" />
    <path
       id="circle68"
       style="fill:#ff0000;fill-opacity:0;stroke:#ff0000;stroke-width:0.1;stroke-linecap:round;stroke-linejoin:round"
       d="m 145.0909,130.53931 a 1.25,1.25 0 0 1 -1.25,1.25 1.25,1.25 0 0 1 -1.25,-1.25 1.25,1.25 0 0 1 1.25,-1.25 1.25,1.25 0 0 1 1.25,1.25 z" />
    <path
       style="fill:#ff0000;fill-opacity:0;stroke:#ff0000;stroke-width:0.1;stroke-linecap:round;stroke-linejoin:round;stroke-opacity:1"
       d="m 139.4852,153.6076 h 7.4414 v 3.4231 h -7.4414 z"
       id="path676" />
    <path
       style="fill:#ff0000;fill-opacity:0;stroke:#ff0000;stroke-width:0.1;stroke-linecap:round;stroke-linejoin:round;stroke-opacity:1"
       d="m 128.1742,143.3285 h 3.423 v 7.4414 h -3.423 z"
       id="path991" />
    <path
       id="circle429"
       style="fill:#ff0000;fill-opacity:0;stroke:#ff0000;stroke-width:0.1;stroke-linecap:round;stroke-linejoin:round"
       d="m 125.4058,141.9693 a 1.25,1.25 0 0 1 -1.25,1.25 1.25,1.25 0 0 1 -1.25,-1.25 1.25,1.25 0 0 1 1.25,-1.25 1.25,1.25 0 0 1 1.25,1.25 z" />
    <path
       style="fill:#ff0000;fill-opacity:0;stroke:#ff0000;stroke-width:0.1;stroke-linecap:round;stroke-linejoin:round;stroke-opacity:1"
       d="m 138.5029,118.7619 h 1.786 v 5.8043 h -1.786 z"
       id="path154" />
    <path
       id="circle493"
       style="fill:#ff0000;fill-opacity:0;stroke:#ff0000;stroke-width:0.1;stroke-linecap:round;stroke-linejoin:round"
       d="m 126.0409,125.4593 a 1.25,1.25 0 0 1 -1.25,1.25 1.25,1.25 0 0 1 -1.25,-1.25 1.25,1.25 0 0 1 1.25,-1.25 1.25,1.25 0 0 1 1.25,1.25 z" />
    <path
       style="fill:#ff0000;fill-opacity:0;stroke:#ff0000;stroke-width:0.1;stroke-linecap:round;stroke-linejoin:round;stroke-opacity:1"
       d="m 126.1501,118.0178 h 7.4414 v 3.4231 h -7.4414 z"
       id="path371" />
    <path
       id="circle250"
       style="fill:#ff0000;fill-opacity:0;stroke:#ff0000;stroke-width:0.1;stroke-linecap:round;stroke-linejoin:round"
       d="m 145.09081,111.4892 a 1.25,1.25 0 0 1 -1.25,1.25 1.25,1.25 0 0 1 -1.25,-1.25 1.25,1.25 0 0 1 1.25,-1.25 1.25,1.25 0 0 1 1.25,1.25 z" />
    <path
       style="fill:#ff0000;fill-opacity:0;stroke:#ff0000;stroke-width:0.1;stroke-linecap:round;stroke-linejoin:round;stroke-opacity:1"
       d="m 157.5529,104.1569 h 1.786 v 5.8043 h -1.786 z"
       id="path44" />
    <path
       style="fill:#ff0000;fill-opacity:0;stroke:#ff0000;stroke-width:0.1;stroke-linecap:round;stroke-linejoin:round;stroke-opacity:1"
       d="m 145.2,104.0478 h 7.4414 v 3.423 H 145.2 Z"
       id="path188" />
    <path
       id="circle401"
       style="fill:#ff0000;fill-opacity:0;stroke:#ff0000;stroke-width:0.1;stroke-linecap:round;stroke-linejoin:round"
       d="m 166.68089,156.52859 a 1.25,1.25 0 0 1 -1.25,1.25 1.25,1.25 0 0 1 -1.25,-1.25 1.25,1.25 0 0 1 1.25,-1.25 1.25,1.25 0 0 1 1.25,1.25 z" />
    <path
       style="fill:#ff0000;fill-opacity:0;stroke:#ff0000;stroke-width:0.1;stroke-linecap:round;stroke-linejoin:round;stroke-opacity:1"
       d="m 157.5531,85.1069 h 1.786 v 5.8043 h -1.786 z"
       id="path511" />
    <path
       id="circle51"
       style="fill:#ff0000;fill-opacity:0;stroke:#ff0000;stroke-width:0.1;stroke-linecap:round;stroke-linejoin:round"
       d="m 151.12081,77.199203 a 2.2,2.2 0 0 1 -2.2,2.200001 2.2,2.2 0 0 1 -2.2,-2.200001 2.2,2.2 0 0 1 2.2,-2.2 2.2,2.2 0 0 1 2.2,2.2 z" />
    <path
       style="fill:#ff0000;fill-opacity:0;stroke:#ff0000;stroke-width:0.1;stroke-linecap:round;stroke-linejoin:round;stroke-opacity:1"
       d="m 145.2002,84.9978 h 7.4414 v 3.423 h -7.4414 z"
       id="path296" />
    <path
       id="circle196"
       style="fill:#ff0000;fill-opacity:0;stroke:#ff0000;stroke-width:0.1;stroke-linecap:round;stroke-linejoin:round"
       d="m 145.091,92.439201 a 1.25,1.25 0 0 1 -1.25,1.25 1.25,1.25 0 0 1 -1.25,-1.25 1.25,1.25 0 0 1 1.25,-1.25 1.25,1.25 0 0 1 1.25,1.25 z" />
    <path
       style="fill:#ff0000;fill-opacity:0;stroke:#ff0000;stroke-width:0.1;stroke-linecap:round;stroke-linejoin:round;stroke-opacity:1"
       d="m 126.1501,79.9178 h 7.4414 v 3.4231 h -7.4414 z"
       id="path769" />
    <path
       style="fill:#ff0000;fill-opacity:0;stroke:#ff0000;stroke-width:0.1;stroke-linecap:round;stroke-linejoin:round;stroke-opacity:1"
       d="m 126.15,98.9678 h 7.4414 v 3.423 H 126.15 Z"
       id="path691" />
    <path
       id="circle861"
       style="fill:#ff0000;fill-opacity:0;stroke:#ff0000;stroke-width:0.1;stroke-linecap:round;stroke-linejoin:round"
       d="m 126.0409,87.359299 a 1.25,1.25 0 0 1 -1.25,1.25 1.25,1.25 0 0 1 -1.25,-1.25 1.25,1.25 0 0 1 1.25,-1.25 1.25,1.25 0 0 1 1.25,1.25 z" />
    <path
       style="fill:#ff0000;fill-opacity:0;stroke:#ff0000;stroke-width:0.1;stroke-linecap:round;stroke-linejoin:round;stroke-opacity:1"
       d="m 107.1,75.4728 h 7.4414 v 3.423 H 107.1 Z"
       id="path278" />
    <path
       id="circle119"
       style="fill:#ff0000;fill-opacity:0;stroke:#ff0000;stroke-width:0.1;stroke-linecap:round;stroke-linejoin:round"
       d="m 106.9908,82.9142 a 1.25,1.25 0 0 1 -1.25,1.25 1.25,1.25 0 0 1 -1.25,-1.25 1.25,1.25 0 0 1 1.25,-1.25 1.25,1.25 0 0 1 1.25,1.25 z" />
    <path
       id="circle795"
       style="fill:#ff0000;fill-opacity:0;stroke:#ff0000;stroke-width:0.1;stroke-linecap:round;stroke-linejoin:round"
       d="m 126.0408,106.4092 a 1.25,1.25 0 0 1 -1.25,1.25 1.25,1.25 0 0 1 -1.25,-1.25 1.25,1.25 0 0 1 1.25,-1.25 1.25,1.25 0 0 1 1.25,1.25 z" />
    <path
       style="fill:#ff0000;fill-opacity:0;stroke:#ff0000;stroke-width:0.1;stroke-linecap:round;stroke-linejoin:round;stroke-opacity:1"
       d="m 100.4029,77.4869 h 1.786 v 5.8043 h -1.786 z"
       id="path649" />
    <path
       style="fill:#ff0000;fill-opacity:0;stroke:#ff0000;stroke-width:0.1;stroke-linecap:round;stroke-linejoin:round;stroke-opacity:1"
       d="m 107.1,94.5228 h 7.4414 v 3.423 H 107.1 Z"
       id="path558" />
    <path
       style="fill:#ff0000;fill-opacity:0;stroke:#ff0000;stroke-width:0.1;stroke-linecap:round;stroke-linejoin:round;stroke-opacity:1"
       d="m 100.4029,96.5369 h 1.786 v 5.8043 h -1.786 z"
       id="path236" />
    <path
       id="circle732"
       style="fill:#ff0000;fill-opacity:0;stroke:#ff0000;stroke-width:0.1;stroke-linecap:round;stroke-linejoin:round"
       d="m 106.9908,101.9642 a 1.25,1.25 0 0 1 -1.25,1.25 1.25,1.25 0 0 1 -1.25,-1.25 1.25,1.25 0 0 1 1.25,-1.25 1.25,1.25 0 0 1 1.25,1.25 z" />
    <path
       style="fill:#ff0000;fill-opacity:0;stroke:#ff0000;stroke-width:0.1;stroke-linecap:round;stroke-linejoin:round;stroke-opacity:1"
       d="m 107.1,113.5728 h 7.4414 v 3.423 H 107.1 Z"
       id="path142" />
    <path
       style="fill:#ff0000;fill-opacity:0;stroke:#ff0000;stroke-width:0.1;stroke-linecap:round;stroke-linejoin:round;stroke-opacity:1"
       d="m 100.4029,115.5869 h 1.786 v 5.8043 h -1.786 z"
       id="path33" />
    <path
       id="circle796"
       style="fill:#ff0000;fill-opacity:0;stroke:#ff0000;stroke-width:0.1;stroke-linecap:round;stroke-linejoin:round"
       d="m 106.9908,121.0142 a 1.25,1.25 0 0 1 -1.25,1.25 1.25,1.25 0 0 1 -1.25,-1.25 1.25,1.25 0 0 1 1.25,-1.25 1.25,1.25 0 0 1 1.25,1.25 z" />
    <path
       style="fill:#ff0000;fill-opacity:0;stroke:#ff0000;stroke-width:0.1;stroke-linecap:round;stroke-linejoin:round;stroke-opacity:1"
       d="m 88.05,79.9178 h 7.4414 v 3.423 H 88.05 Z"
       id="path844" />
    <path
       style="fill:#ff0000;fill-opacity:0;stroke:#ff0000;stroke-width:0.1;stroke-linecap:round;stroke-linejoin:round;stroke-opacity:1"
       d="m 88.0501,98.9678 h 7.4414 v 3.4231 h -7.4414 z"
       id="path510" />
    <path
       id="circle833"
       style="fill:#ff0000;fill-opacity:0;stroke:#ff0000;stroke-width:0.1;stroke-linecap:round;stroke-linejoin:round"
       d="m 87.940804,87.3592 a 1.25,1.25 0 0 1 -1.25,1.25 1.25,1.25 0 0 1 -1.25,-1.25 1.25,1.25 0 0 1 1.25,-1.25 1.25,1.25 0 0 1 1.25,1.25 z" />
    <path
       id="circle609"
       style="fill:#ff0000;fill-opacity:0;stroke:#ff0000;stroke-width:0.1;stroke-linecap:round;stroke-linejoin:round"
       d="m 87.940903,106.4093 a 1.25,1.25 0 0 1 -1.25,1.25 1.25,1.25 0 0 1 -1.25,-1.25 1.25,1.25 0 0 1 1.25,-1.25 1.25,1.25 0 0 1 1.25,1.25 z" />
    <path
       style="fill:#ff0000;fill-opacity:0;stroke:#ff0000;stroke-width:0.1;stroke-linecap:round;stroke-linejoin:round;stroke-opacity:1"
       d="m 88.05,118.0178 h 7.4414 v 3.423 H 88.05 Z"
       id="path556" />
    <path
       id="circle93"
       style="fill:#ff0000;fill-opacity:0;stroke:#ff0000;stroke-width:0.1;stroke-linecap:round;stroke-linejoin:round"
       d="m 87.940804,125.4592 a 1.25,1.25 0 0 1 -1.25,1.25 1.25,1.25 0 0 1 -1.25,-1.25 1.25,1.25 0 0 1 1.25,-1.25 1.25,1.25 0 0 1 1.25,1.25 z" />
    <path
       id="path996"
       style="fill:#ff0000;fill-opacity:0;stroke:#ff0000;stroke-width:0.1;stroke-linecap:round;stroke-linejoin:round;stroke-opacity:1"
       d="m 152.7521,93.1833 h -1.599 m 4.0184,3.4231 h 2.5301 m -11.0133,-1.6371 h -2.5301 m 8.5939,-2.5301 v 0.7441 m 4.9495,0.1488 h -2.4495 m -0.0806,4.1672 v -0.8929 m 2.5301,0 v -3.2743 m -13.5434,6.102 h 9.0785 m -2.0834,-6.9949 a 2.2324,2.2324 0 0 0 -4.4648,0 m -2.5303,2.5301 v 0.8929 m 0,0 h -2.6789 m 0,3.2742 h 2.6789 m 9.0785,0.2977 a 2.4334,2.4334 0 0 0 1.9348,-1.9348 m 0.0806,-4.1672 v -0.8929 m -4.099,0 v 0.7441 m 4.099,-0.7441 a 1.25,1.25 0 0 0 -2.5,0 m -8.5939,6.6972 v 0.2977 m -2.6789,-3.5719 v 3.2742 m 5.209,-6.6972 v 2.5301" />
    <path
       id="path998"
       style="fill:#ff0000;fill-opacity:0;stroke:#ff0000;stroke-width:0.1;stroke-linecap:round;stroke-linejoin:round;stroke-opacity:1"
       d="m 144.1582,114.9122 h -2.6789 m 11.2728,-3.423 v 0.7441 m -1.599,-0.7441 v 0.7441 m -9.6738,2.6789 v 3.2742 m 9.6738,-6.6972 a 2.2324,2.2324 0 0 0 -4.4648,0 m 11.0133,0.8929 h -2.4495 m -11.0939,6.102 h 9.0785 m 0,0 a 2.4334,2.4334 0 0 0 1.9348,-1.9348 m -8.4832,-5.0601 v 2.5301 m 8.5638,-1.6372 v -0.8929 m -11.0939,2.5301 v 0.8929 m -2.6789,3.2742 h 2.6789 m 13.5434,-2.53 v -3.2743 m -2.5301,4.1672 v -0.8929 m -8.4832,-1.6371 h -2.5301 m 0,4.1671 v 0.2977 m 8.5939,-6.2508 h -1.599 m 4.0184,3.4231 h 2.5301 m -2.4495,-4.1672 a 1.25,1.25 0 0 0 -2.5,0" />
    <path
       id="path971"
       style="fill:#ff0000;fill-opacity:0;stroke:#ff0000;stroke-width:0.1;stroke-linecap:round;stroke-linejoin:round;stroke-opacity:1"
       d="m 155.1716,134.7064 h 2.5301 m -4.9495,-3.423 h -1.599 m -9.6738,2.6789 v 3.2742 m 9.6738,-6.6973 a 2.2324,2.2324 0 0 0 -4.4648,0 m 0,0 v 2.5301 m -2.5301,4.4648 h 9.0785 m -0.4846,-6.9948 v 0.7441 m 2.4194,4.316 v -0.893 m 0.0806,-4.1671 a 1.25,1.25 0 0 0 -2.5,0 m 0.4846,6.9948 a 2.4334,2.4334 0 0 0 1.9348,-1.9347 m -11.0133,1.6371 v 0.2976 m 13.5434,-6.1019 h -2.4495 m -8.5638,1.6371 h -2.5301 m 13.5434,1.6371 v -3.2742 m -16.2223,5.8043 h 2.6789 m 0,-4.1672 v 0.893 m 6.9949,-3.4231 v 0.7442 m -6.9949,2.6789 h -2.6789 m 13.7728,-2.5301 v -0.8929" />
    <path
       id="path997"
       style="fill:#ff0000;fill-opacity:0;stroke:#ff0000;stroke-width:0.1;stroke-linecap:round;stroke-linejoin:round;stroke-opacity:1"
       d="m 147.9684,147.0592 v -0.893 m -9.0785,-3.5719 a 2.4334,2.4334 0 0 0 -1.9348,1.9348 m -0.0805,5.0601 a 1.25,1.25 0 0 0 2.5,0 m -6.6503,-0.8929 h 4.1503 m 4.0989,0.893 a 2.2324,2.2324 0 0 0 4.4648,0 m 2.5301,-3.4231 h 2.6789 m -5.209,3.4231 v -2.5301 m -8.5637,1.6371 v 0.8929 m 2.5,-0.7441 h 1.5989 m -4.0184,-4.316 v 0.893 m 11.0133,-2.8278 h -9.0785 m -6.1656,-2.2329 v 8.3349 m 12.714,-1.6371 h 2.5301 m 0,-4.1672 v -0.2977 m -15.2441,-2.2329 h 1.9347 m 15.9883,2.5306 h -2.6789 m -6.9949,6.6973 v -0.7442 m -4.0184,-3.423 -2.2961,-5e-4 m 0,-5.0602 v 5.0602 m 15.9883,0.7446 v -3.2742 m -11.2727,6.6972 v -0.7441" />
    <path
       id="path910"
       style="fill:#ff0000;fill-opacity:0;stroke:#ff0000;stroke-width:0.1;stroke-linecap:round;stroke-linejoin:round;stroke-opacity:1"
       d="m 134.1868,132.4541 a 2.4334,2.4334 0 0 0 1.9348,-1.9347 m -8.4832,-5.0602 v 2.5301 m -5.209,4.1672 h 2.6789 m -2.6789,-3.2742 v 3.2742 m 9.6738,-6.6973 a 2.2324,2.2324 0 0 0 -4.4648,0 m 11.0133,0.893 h -2.4495 m -11.0939,6.1019 h 9.0785 m -0.4846,-6.2507 h -1.599 m 0,-0.7442 v 0.7442 m -4.4648,1.7859 h -2.5301 m 8.5939,-2.53 v 0.7441 m 2.4194,4.316 v -0.893 m -11.0133,-0.7441 h -2.6789 m 16.2223,0.7441 v -3.2742 m -13.5434,1.6371 v 0.893 m 11.0939,-2.5301 v -0.8929 m -11.0939,6.6972 v 0.2976 m 11.0939,-6.9948 a 1.25,1.25 0 0 0 -2.5,0 m 2.4194,4.1671 h 2.5301" />
    <path
       id="path896"
       style="fill:#ff0000;fill-opacity:0;stroke:#ff0000;stroke-width:0.1;stroke-linecap:round;stroke-linejoin:round;stroke-opacity:1"
       d="m 117.1609,142.2867 v 9.0785 m 0.2977,-11.7574 v 2.6789 m 5.8042,11.0939 h 0.893 m 0,-4.099 h -0.7441 m -5.9531,-6.9949 h -0.2977 m 6.9949,8.5939 h -0.7441 m -6.2508,0.4846 a 2.4334,2.4334 0 0 0 1.9348,1.9348 m 0,0 h 0.8929 m 0,0 v 2.5301 m 0.7442,-16.2223 h -3.2742 m 5.8042,16.2223 v -2.4495 m -2.53,-11.0939 v -2.6789 m 0.8929,2.6789 h -0.8929 m -0.7442,13.5434 h 3.2742 m 0.1489,-4.9495 v -1.599 m 0.7441,-4.4648 h -2.5301 m 2.5301,4.4648 a 2.2324,2.2324 0 1 0 0,-4.4648 m -2.5301,0 v -2.5301 m 2.5301,11.0939 a 1.25,1.25 0 0 0 0,-2.5" />
    <path
       id="path974"
       style="fill:#ff0000;fill-opacity:0;stroke:#ff0000;stroke-width:0.1;stroke-linecap:round;stroke-linejoin:round;stroke-opacity:1"
       d="m 138.4543,88.2518 -2.2521,4e-4 m 4.1124,-6.3256 h -1.8603 m -2.2521,5.4327 a 1.25,1.25 0 0 0 -2.5,0 m -11.2728,6.6972 h 2.6789 m -2.6789,-3.2742 v 3.2742 m 11.7574,0.2976 a 2.4334,2.4334 0 0 0 1.9348,-1.9347 m 0,0 v -0.893 m 0.0806,-3.2742 v -0.8929 m -8.5638,-1e-4 v 2.5301 m -2.5301,4.4648 h 9.0785 m -2.0836,-6.9949 v 0.7442 m -6.9949,2.6789 h -2.6789 m 5.209,-0.893 h -2.5301 m 13.346,-7.9627 v 6.3252 m -6.3511,-0.8926 a 2.2324,2.2324 0 0 0 -4.4648,0 m 12.6762,4.1672 v -9.5998 m -15.2063,7.9627 v 0.893 m 8.5939,-2.6789 h -1.599 m 4.0184,3.423 h 4.193 m -6.6124,-4.1671 v 0.7441 m -8.5939,5.9531 v 0.2976" />
    <path
       id="path1000"
       style="fill:#ff0000;fill-opacity:0;stroke:#ff0000;stroke-width:0.1;stroke-linecap:round;stroke-linejoin:round;stroke-opacity:1"
       d="m 138.4542,100.9766 v 6.3252 m -4.7521,-0.8926 v 0.7441 m 2.4194,3.4231 h 4.193 m -4.1124,-3.2743 v -0.8929 m -11.0939,3.423 h -2.6789 m 17.8852,-8.8556 h -1.8603 m -4.2675,12.4275 a 2.4334,2.4334 0 0 0 1.9348,-1.9348 m -4.0184,-5.0601 v 0.7441 m -6.9949,1.786 v 0.8929 m 11.0939,-3.423 a 1.25,1.25 0 0 0 -2.5,0 m -1.599,0 a 2.2324,2.2324 0 0 0 -4.4648,0 m 6.0638,0.7441 h -1.599 m -6.9949,5.9531 v 0.2977 m 11.0133,-1.9348 v -0.8929 m 2.3327,-3.2746 -2.2521,3e-4 m 4.1124,3.2743 v -9.5998 m -15.2063,12.4275 h 9.0785 m -6.5484,-6.9949 v 2.5301 m 0,0 h -2.5301 m -2.6789,4.1671 h 2.6789 m -2.6789,-3.2742 v 3.2742" />
    <path
       id="path888"
       style="fill:#ff0000;fill-opacity:0;stroke:#ff0000;stroke-width:0.1;stroke-linecap:round;stroke-linejoin:round;stroke-opacity:1"
       d="m 114.6521,121.0142 v 0.7441 m 0.4846,6.2508 a 2.4334,2.4334 0 0 0 1.9348,-1.9348 m 0,-0.8929 h 4.193 m -15.2063,-0.7442 h -2.6789 m 2.6789,3.5719 h 9.0785 m -0.4846,-6.2508 h -1.599 m -9.6738,2.6789 v 3.2742 m 5.209,-4.1671 h -2.5301 m 0,4.1671 v 0.2977 m 13.346,-6.1023 -2.2521,3e-4 m 4.1124,3.2743 v -9.5998 m -17.8852,12.1298 h 2.6789 m 2.5301,-6.6972 v 2.5301 m 10.8159,-7.9627 v 6.3252 m 1.8603,-6.3252 h -1.8603 m -2.3327,10.4927 v -0.8929 m -4.0184,-4.1672 v 0.7441 m 4.099,0.1488 v -0.8929 m -4.099,0 a 2.2324,2.2324 0 0 0 -4.4648,0 m -2.5301,2.5301 v 0.8929 m 11.0939,-3.423 a 1.25,1.25 0 0 0 -2.5,0" />
    <path
       id="path891"
       style="fill:#ff0000;fill-opacity:0;stroke:#ff0000;stroke-width:0.1;stroke-linecap:round;stroke-linejoin:round;stroke-opacity:1"
       d="m 114.6521,102.7083 h -1.599 m -4.4648,-0.7441 v 2.5301 m 10.8159,-1.6375 -2.2521,3e-4 m -2.0154,6.102 a 2.4334,2.4334 0 0 0 1.9348,-1.9348 m -4.0184,-5.0601 v 0.7441 m -4.4648,1.786 h -2.5301 m 8.5939,-2.5301 v 0.7441 m -11.2728,2.6789 v 3.2742 m 13.7728,-6.6972 a 1.25,1.25 0 0 0 -2.5,0 m 4.7521,-5.4326 v 6.3252 m -2.3327,4.1675 v -0.8929 m -11.0133,-0.7442 h -2.6789 m 9.6738,-3.423 a 2.2324,2.2324 0 0 0 -4.4648,0 m 8.5638,0.8929 v -0.8929 m -11.0939,2.5301 v 0.8929 m 15.2063,0.7442 v -9.5998 m 0,0 h -1.8603 m -16.0249,12.1298 h 2.6789 m 11.0133,-2.53 h 4.193 m -15.2063,2.8277 h 9.0785 m -9.0785,-0.2977 v 0.2977" />
    <path
       id="path982"
       style="fill:#ff0000;fill-opacity:0;stroke:#ff0000;stroke-width:0.1;stroke-linecap:round;stroke-linejoin:round;stroke-opacity:1"
       d="m 117.1521,83.8071 v -0.8929 m 2.2521,0.8926 -2.2521,3e-4 m 4.1124,-6.3255 h -1.8603 m -13.346,8.8556 h -2.6789 m 5.209,-0.8929 h -2.5301 m 0,4.4648 h 9.0785 m 2.0154,-6.9949 a 1.25,1.25 0 0 0 -2.5,0 m -1.599,0 a 2.2324,2.2324 0 0 0 -4.4648,0 m 10.8159,-5.4326 v 6.3252 m -10.8159,-0.8926 v 2.5301 m 8.4832,1.6371 h 4.193 m -17.8852,2.53 h 2.6789 m 9.0785,0.2977 a 2.4334,2.4334 0 0 0 1.9348,-1.9348 m 4.193,-0.8929 v -9.5998 m -17.8852,8.8556 v 3.2742 m 13.6922,-1.6371 v -0.8929 m -11.0133,2.53 v 0.2977 m 8.5939,-6.2508 h -1.599 m -6.9949,1.786 v 0.8929 m 8.5939,-3.423 v 0.7441 m -1.599,-0.7441 v 0.7441" />
    <path
       id="path806"
       style="fill:#ff0000;fill-opacity:0;stroke:#ff0000;stroke-width:0.1;stroke-linecap:round;stroke-linejoin:round;stroke-opacity:1"
       d="m 198.0598,115.3583 v 2.5301 m 0,0 h -11.8319 m 0,0 v -6.7717 m 3.3487,4.2416 h 8.4832 m -11.8319,-4.2416 h 3.3487 m 0,0 v 4.2416" />
    <path
       id="circle446"
       style="fill:#ff0000;fill-opacity:0;stroke:#ff0000;stroke-width:0.1;stroke-linecap:round;stroke-linejoin:round"
       d="m 198.1108,145.77921 a 2.2,2.2 0 0 1 -2.2,2.2 2.2,2.2 0 0 1 -2.2,-2.2 2.2,2.2 0 0 1 2.2,-2.2 2.2,2.2 0 0 1 2.2,2.2 z" />
    <path
       style="fill:#ff0000;fill-opacity:0;stroke:#ff0000;stroke-width:0.1;stroke-linecap:round;stroke-linejoin:round;stroke-opacity:1"
       d="m 191.8984,152.1795 -0.8929,1.5466 -5.0267,-2.9021 0.893,-1.5467 z"
       id="path269" />
    <path
       style="fill:#ff0000;fill-opacity:0;stroke:#ff0000;stroke-width:0.1;stroke-linecap:round;stroke-linejoin:round;stroke-opacity:1"
       d="m 185.266,77.3955 h 2.2324 v 30.2865 h -2.2324 z"
       id="path696" />
    <path
       id="path900"
       style="fill:#ff0000;fill-opacity:0;stroke:#ff0000;stroke-width:0.1;stroke-linecap:round;stroke-linejoin:round;stroke-opacity:1"
       d="m 198.0341,92.4392 -1.9347,-1.9348 m 0,9.525 1.9347,-2.0836 m -4.9113,2.0836 h 2.9766 m -2.9766,-9.525 v 9.525 m 2.9766,-9.525 h -2.9766 m 4.9113,7.4414 v -5.5066" />
    <path
       id="circle919"
       style="fill:#ff0000;fill-opacity:0;stroke:#ff0000;stroke-width:0.1;stroke-linecap:round;stroke-linejoin:round"
       d="m 198.1108,77.199203 a 2.2,2.2 0 0 1 -2.2,2.200001 2.2,2.2 0 0 1 -2.2,-2.200001 2.2,2.2 0 0 1 2.2,-2.2 2.2,2.2 0 0 1 2.2,2.2 z" />
    <path
       style="fill:#ff0000;fill-opacity:0;stroke:#ff0000;stroke-width:0.1;stroke-linecap:round;stroke-linejoin:round;stroke-opacity:1"
       d="m 183.0843,156.6461 -3.7207,6.4445 -3.1877,-1.9348 3.7207,-6.4444 z"
       id="path268" />
    <path
       id="circle515"
       style="fill:#ff0000;fill-opacity:0;stroke:#ff0000;stroke-width:0.1;stroke-linecap:round;stroke-linejoin:round"
       d="m 197.4758,168.0042 a 2.2,2.2 0 0 1 -2.2,2.2 2.2,2.2 0 0 1 -2.2,-2.2 2.2,2.2 0 0 1 2.2,-2.2 2.2,2.2 0 0 1 2.2,2.2 z" />
    <path
       id="circle657"
       style="fill:#ff0000;fill-opacity:0;stroke:#ff0000;stroke-width:0.1;stroke-linecap:round;stroke-linejoin:round"
       d="m 183.1908,166.0536 a 1.25,1.25 0 0 1 -1.25,1.25 1.25,1.25 0 0 1 -1.25,-1.25 1.25,1.25 0 0 1 1.25,-1.25 1.25,1.25 0 0 1 1.25,1.25 z" />
    <path
       id="path966"
       style="fill:#ff0000;fill-opacity:0;stroke:#ff0000;stroke-width:0.1;stroke-linecap:round;stroke-linejoin:round;stroke-opacity:1"
       d="m 191.215,158.3245 1.265,-2.1911 m -4.0603,0.4843 -0.7733,-0.4465 m -3.9219,13.639 2.8355,1.6372 m -0.9631,-11.7265 0.6445,0.3721 m -1.1775,7.3972 -1.3394,2.32 m 8.2638,-11.0392 -0.7733,-0.4465 m -3.5686,-2.1533 a 1.2500158,1.2500158 0 0 0 -1.25,2.1651 m -2.1058,8.7075 0.7733,0.4464 m -1.6994,-3.9026 2.1911,1.2651 m 2.3439,4.2747 0.2578,0.1488 m 0,0 4.5392,-7.8622 m -7.1409,3.4387 -1.265,2.1911 m 8.1894,-10.9104 -2.8355,-1.6371 m 3.052,6.9177 a 2.4332,2.4332 0 0 0 -0.7082,-2.643 m -5.4283,12.6764 1.3395,-2.32 m -2.3026,-9.4065 a 2.2324302,2.2324302 0 1 0 -2.2324,3.8667 m 3.0319,-5.2513 0.6444,0.372 m 2.6037,-4.212 -1.2248,2.1214 m -1.3789,2.0906 -0.7994,1.3847" />
    <path
       id="path918"
       style="fill:#ff0000;fill-opacity:0;stroke:#ff0000;stroke-width:0.1;stroke-linecap:round;stroke-linejoin:round;stroke-opacity:1"
       d="m 171.9098,147.0926 -0.7733,-0.4465 m 0,0 a 1.2500158,1.2500158 0 1 0 -1.25,2.1651 m 0.1636,13.1111 1.3395,-2.32 m 0,0 0.2577,0.1488 m -4.4327,0.5341 2.8355,1.6371 m 1.5972,-2.1712 4.5393,-7.8622 m -7.1409,3.4387 -1.265,2.1911 m 1.3063,-7.3228 0.6445,0.3721 m 6.4551,1.3209 a 2.4334,2.4334 0 0 0 -0.7082,-2.6429 m -2.3438,-4.2747 -1.2248,2.1213 m 4.0603,-0.4842 -2.8355,-1.6371 m -3.2481,3.8399 0.6444,0.372 m 4.9475,0.0628 -0.7733,-0.4465 m 0,0 1.265,-2.1911 m -9.1155,7.4542 2.1911,1.265 m -0.4917,2.6376 -1.3394,2.32 m 1.8724,-10.0893 a 2.2324302,2.2324302 0 0 0 -2.2324,3.8667 m 0.9261,3.4561 0.7733,0.4465 m 1.9769,-8.782 -0.7994,1.3848" />
    <path
       style="fill:#ff0000;fill-opacity:0;stroke:#ff0000;stroke-width:0.1;stroke-linecap:round;stroke-linejoin:round;stroke-opacity:1"
       d="m 69.0001,88.8078 h 7.4414 v 3.4231 h -7.4414 z"
       id="path357" />
    <path
       id="circle147"
       style="fill:#ff0000;fill-opacity:0;stroke:#ff0000;stroke-width:0.1;stroke-linecap:round;stroke-linejoin:round"
       d="m 55.870799,89.264198 a 2.2,2.2 0 0 1 -2.2,2.2 2.2,2.2 0 0 1 -2.2,-2.2 2.2,2.2 0 0 1 2.2,-2.2 2.2,2.2 0 0 1 2.2,2.2 z" />
    <path
       id="circle287"
       style="fill:#ff0000;fill-opacity:0;stroke:#ff0000;stroke-width:0.1;stroke-linecap:round;stroke-linejoin:round"
       d="m 68.8909,96.249298 a 1.25,1.25 0 0 1 -1.25,1.25 1.25,1.25 0 0 1 -1.25,-1.25 1.25,1.25 0 0 1 1.25,-1.25 1.25,1.25 0 0 1 1.25,1.25 z" />
    <path
       style="fill:#ff0000;fill-opacity:0;stroke:#ff0000;stroke-width:0.1;stroke-linecap:round;stroke-linejoin:round;stroke-opacity:1"
       d="m 49.9501,98.3328 h 7.4414 v 3.4231 h -7.4414 z"
       id="path929" />
    <path
       style="fill:#ff0000;fill-opacity:0;stroke:#ff0000;stroke-width:0.1;stroke-linecap:round;stroke-linejoin:round;stroke-opacity:1"
       d="m 69.0001,107.8578 h 7.4414 v 3.4231 h -7.4414 z"
       id="path622" />
    <path
       id="circle885"
       style="fill:#ff0000;fill-opacity:0;stroke:#ff0000;stroke-width:0.1;stroke-linecap:round;stroke-linejoin:round"
       d="m 68.8909,115.2993 a 1.25,1.25 0 0 1 -1.25,1.25 1.25,1.25 0 0 1 -1.25,-1.25 1.25,1.25 0 0 1 1.25,-1.25 1.25,1.25 0 0 1 1.25,1.25 z" />
    <path
       id="circle3"
       style="fill:#ff0000;fill-opacity:0;stroke:#ff0000;stroke-width:0.1;stroke-linecap:round;stroke-linejoin:round"
       d="m 49.8409,105.7743 a 1.25,1.25 0 0 1 -1.25,1.25 1.25,1.25 0 0 1 -1.25,-1.25 1.25,1.25 0 0 1 1.25,-1.25 1.25,1.25 0 0 1 1.25,1.25 z" />
    <path
       style="fill:#ff0000;fill-opacity:0;stroke:#ff0000;stroke-width:0.1;stroke-linecap:round;stroke-linejoin:round;stroke-opacity:1"
       d="m 49.95,117.3828 h 7.4414 v 3.423 H 49.95 Z"
       id="path551" />
    <path
       style="fill:#ff0000;fill-opacity:0;stroke:#ff0000;stroke-width:0.1;stroke-linecap:round;stroke-linejoin:round;stroke-opacity:1"
       d="m 69,126.9078 h 7.4414 v 3.423 H 69 Z"
       id="path342" />
    <path
       id="circle177"
       style="fill:#ff0000;fill-opacity:0;stroke:#ff0000;stroke-width:0.1;stroke-linecap:round;stroke-linejoin:round"
       d="m 68.8908,134.3492 a 1.25,1.25 0 0 1 -1.25,1.25 1.25,1.25 0 0 1 -1.25,-1.25 1.25,1.25 0 0 1 1.25,-1.25 1.25,1.25 0 0 1 1.25,1.25 z" />
    <path
       id="circle71"
       style="fill:#ff0000;fill-opacity:0;stroke:#ff0000;stroke-width:0.1;stroke-linecap:round;stroke-linejoin:round"
       d="m 49.8409,124.8243 a 1.25,1.25 0 0 1 -1.25,1.25 1.25,1.25 0 0 1 -1.25,-1.25 1.25,1.25 0 0 1 1.25,-1.25 1.25,1.25 0 0 1 1.25,1.25 z" />
    <path
       style="fill:#ff0000;fill-opacity:0;stroke:#ff0000;stroke-width:0.1;stroke-linecap:round;stroke-linejoin:round;stroke-opacity:1"
       d="m 49.9501,136.4328 h 7.4414 v 3.4231 h -7.4414 z"
       id="path335" />
    <path
       id="circle204"
       style="fill:#ff0000;fill-opacity:0;stroke:#ff0000;stroke-width:0.1;stroke-linecap:round;stroke-linejoin:round"
       d="m 49.8409,143.8743 a 1.25,1.25 0 0 1 -1.25,1.25 1.25,1.25 0 0 1 -1.25,-1.25 1.25,1.25 0 0 1 1.25,-1.25 1.25,1.25 0 0 1 1.25,1.25 z" />
    <path
       id="circle818"
       style="fill:#ff0000;fill-opacity:0;stroke:#ff0000;stroke-width:0.1;stroke-linecap:round;stroke-linejoin:round"
       d="m 55.870799,156.5742 a 2.2,2.2 0 0 1 -2.2,2.2 2.2,2.2 0 0 1 -2.2,-2.2 2.2,2.2 0 0 1 2.2,-2.2 2.2,2.2 0 0 1 2.2,2.2 z" />
    <path
       id="path903"
       style="fill:#ff0000;fill-opacity:0;stroke:#ff0000;stroke-width:0.1;stroke-linecap:round;stroke-linejoin:round;stroke-opacity:1"
       d="m 87.0082,127.9893 v 0.8929 m 8.5939,-3.423 v 0.7441 m -1.599,-0.7441 a 2.2324,2.2324 0 0 0 -4.4648,0 m 11.0133,0.8929 h -2.4495 m -2.0154,6.102 a 2.4334,2.4334 0 0 0 1.9348,-1.9348 m -11.0133,1.6371 v 0.2977 m 0,-3.5719 h -2.6789 m 11.2728,-2.6789 h -1.599 m 6.5485,3.4231 v -3.2743 m -11.0133,1.6372 h -2.5301 m 2.5301,-2.5301 v 2.5301 m 8.4832,2.53 v -0.8929 m 0.0806,-3.2743 v -0.8929 m -13.7728,3.423 v 3.2742 m 2.6789,0.2977 h 9.0785 m -11.7574,-0.2977 h 2.6789 m 6.9949,-6.6972 v 0.7441 m 4.099,-0.7441 a 1.25,1.25 0 0 0 -2.5,0 m 2.4194,4.1672 h 2.5301" />
    <path
       id="path855"
       style="fill:#ff0000;fill-opacity:0;stroke:#ff0000;stroke-width:0.1;stroke-linecap:round;stroke-linejoin:round;stroke-opacity:1"
       d="m 84.3294,113.1065 h 2.6789 m 11.0133,-2.5301 h 2.5301 m -2.4495,-3.2742 v -0.8929 m -2.5,0.7441 h -1.599 m -6.9949,2.6789 h -2.6789 m 9.6738,-3.4231 v 0.7442 m -4.4648,-0.7442 v 2.5301 m 6.0638,-2.53 v 0.7441 m -8.5939,6.2507 h 9.0785 m -6.5484,-4.4648 h -2.5301 m 11.0133,2.5301 v -0.893 m 2.5301,-3.2742 h -2.4495 m 0,-0.8929 a 1.25,1.25 0 0 0 -2.5,0 m -8.5939,6.6972 v 0.2976 m 13.5434,-2.8277 v -3.2742 m -6.5485,-0.893 a 2.2324,2.2324 0 0 0 -4.4648,0 m 6.5484,6.9949 a 2.4334,2.4334 0 0 0 1.9348,-1.9347 m -11.0133,-2.5301 v 0.893 m -2.6789,0 v 3.2742" />
    <path
       id="path906"
       style="fill:#ff0000;fill-opacity:0;stroke:#ff0000;stroke-width:0.1;stroke-linecap:round;stroke-linejoin:round;stroke-opacity:1"
       d="m 96.0867,94.3541 a 2.4334,2.4334 0 0 0 1.9348,-1.9348 m 2.5301,-0.8929 v -3.2743 m -4.9495,-0.8929 v 0.7441 m -8.5939,6.2508 h 9.0785 m 1.9348,-2.8277 h 2.5301 m 0,-3.2743 h -2.4495 m -8.5638,-0.8929 v 2.5301 m -5.209,0.8929 v 3.2742 m 9.6738,-6.6972 a 2.2324,2.2324 0 0 0 -4.4648,0 m 8.5638,0.8929 v -0.8929 m -11.0939,6.6972 v 0.2977 m 2.5301,-4.4648 h -2.5301 m 6.9949,-2.5301 v 0.7441 m 4.0184,4.316 v -0.8929 m -2.4194,-3.4231 h -1.599 m 4.099,-0.7441 a 1.25,1.25 0 0 0 -2.5,0 m -8.5939,3.423 h -2.6789 m 2.6789,-0.8929 v 0.8929 m -2.6789,3.2742 h 2.6789" />
    <path
       id="path951"
       style="fill:#ff0000;fill-opacity:0;stroke:#ff0000;stroke-width:0.1;stroke-linecap:round;stroke-linejoin:round;stroke-opacity:1"
       d="m 76.5522,96.2493 v 0.7441 m -8.5939,1.7859 v 0.893 m 2.5301,-3.4231 v 2.5301 m -2.5301,0.893 h -2.6789 m 5.209,-0.893 h -2.5301 m 15.2062,1.6371 v -8.945 m 0,0 h -1.8603 m -16.0248,8.2009 v 3.2742 m 13.6922,-1.6371 v -0.893 m 2.3326,-3.2742 h -2.252 m -4.099,-0.893 v 0.7442 m -6.9949,6.2507 h 9.0785 m 1.9348,-2.8277 h 4.1929 m -6.1277,2.8277 a 2.4334,2.4334 0 0 0 1.9348,-1.9347 m -4.0184,-5.0602 a 2.2324,2.2324 0 0 0 -4.4648,0 m 8.5638,0.893 v -0.8929 m -11.0939,6.6972 v 0.2976 m 8.5939,-6.2507 h -1.599 m 6.351,-5.522 v 5.6708 m -2.252,-0.8929 a 1.25,1.25 0 0 0 -2.5,0 m -11.2728,6.6972 h 2.6789" />
    <path
       id="path968"
       style="fill:#ff0000;fill-opacity:0;stroke:#ff0000;stroke-width:0.1;stroke-linecap:round;stroke-linejoin:round;stroke-opacity:1"
       d="m 65.2794,118.7223 v 3.2742 m 2.6789,0.2976 h 9.0785 m 6.1277,-11.7727 h -1.8603 m -6.351,4.7778 v 0.7442 m 4.0184,3.423 h 4.1929 m -6.6123,-4.1671 v 0.7441 m 2.5,0.1488 v -0.8929 m 2.252,0.8929 h -2.252 m -11.0939,5.8043 v 0.2976 m 6.9949,-6.9949 a 2.2324,2.2324 0 0 0 -4.4648,0 m -5.209,6.6973 h 2.6789 m 2.5301,-6.6973 v 2.5301 m 12.6761,1.6371 v -8.945 m -4.1123,4.7779 a 1.25,1.25 0 0 0 -2.5,0 m 2.4194,5.0601 v -0.893 m -1.9348,2.8277 a 2.4334,2.4334 0 0 0 1.9348,-1.9347 m -2.4194,-4.316 h -1.599 m -6.9949,2.6789 h -2.6789 m 2.6789,-0.893 v 0.893 m 2.5301,-0.893 h -2.5301 m 13.3459,-7.3079 v 5.6708" />
    <path
       id="path989"
       style="fill:#ff0000;fill-opacity:0;stroke:#ff0000;stroke-width:0.1;stroke-linecap:round;stroke-linejoin:round;stroke-opacity:1"
       d="m 65.2793,137.7722 v 3.2742 m 13.6922,-1.6371 v -0.8929 m 0.0806,-3.2743 v -0.8929 m 2.2521,0.8929 h -2.2521 m -2.0154,6.102 a 2.4334,2.4334 0 0 0 1.9348,-1.9348 m -11.0133,1.6371 v 0.2977 m 15.2063,-2.8277 v -8.945 m -6.6124,5.5219 h -1.599 m 0,-0.7441 v 0.7441 m -6.9949,2.6789 h -2.6789 m 16.0249,-8.2008 v 5.6707 m -13.346,1.6372 v 0.8929 m 15.2063,-8.2008 h -1.8603 m -4.7521,4.7778 v 0.7441 m 2.5,-0.7441 a 1.25,1.25 0 0 0 -2.5,0 m -11.2728,6.6972 h 2.6789 m 0,0.2977 h 9.0785 m -6.5484,-4.4648 h -2.5301 m 11.0133,1.6371 h 4.193 m -12.6762,-4.1672 v 2.5301 m 4.4648,-2.5301 a 2.2324,2.2324 0 0 0 -4.4648,0" />
    <path
       id="path898"
       style="fill:#ff0000;fill-opacity:0;stroke:#ff0000;stroke-width:0.1;stroke-linecap:round;stroke-linejoin:round;stroke-opacity:1"
       d="m 46.2294,109.1973 v 3.2742 m 17.8852,-2.5301 v -9.6147 m -6.6124,5.4476 v 0.7441 m -8.5939,5.9531 v 0.2976 m 11.0133,-2.8277 h 4.193 m -4.1124,-3.364 v -0.8031 m 2.252,-5.4476 v 6.2507 m -2.252,-0.8031 a 1.25,1.25 0 0 0 -2.5,0 m 6.6124,-5.4476 h -1.8604 m -13.3459,12.4424 h 9.0785 m 1.9348,-1.9347 v -0.893 m -4.0184,-4.1672 a 2.2324,2.2324 0 0 0 -4.4648,0 m 0,0 v 2.5301 m 6.0638,-1.7859 h -1.599 m -9.6738,5.9531 h 2.6789 m 6.9949,-6.6973 v 0.7442 m -6.9949,1.7859 v 0.893 m 13.3459,-2.6199 h -2.252 m -11.0939,2.6199 h -2.6789 m 11.7574,3.5718 a 2.4334,2.4334 0 0 0 1.9348,-1.9347 m -8.4832,-2.5301 h -2.5301" />
    <path
       id="path876"
       style="fill:#ff0000;fill-opacity:0;stroke:#ff0000;stroke-width:0.1;stroke-linecap:round;stroke-linejoin:round;stroke-opacity:1"
       d="m 48.9083,131.8191 h 9.0785 m -11.7574,-3.5718 v 3.2742 m 11.2728,-5.9531 h -1.599 m 0,-0.7442 a 2.2324,2.2324 0 0 0 -4.4648,0 m 6.5484,6.9949 a 2.4334,2.4334 0 0 0 1.9348,-1.9347 m 4.193,-10.5077 h -1.8604 m -13.3459,7.9776 v 0.893 m 13.3459,-2.6199 h -2.252 m -0.0806,4.257 v -0.893 m 0.0806,-4.1671 a 1.25,1.25 0 0 0 -2.5,0 m -6.0638,-10e-5 v 2.5301 m 6.0638,-2.53 v 0.7441 m -8.5939,2.6789 h -2.6789 m 2.6789,3.2742 v 0.2976 m 15.2063,-2.8277 v -9.6147 m -1.8604,0 v 6.2507 m -10.8158,1.7269 h -2.5301 m 6.9949,-2.5301 v 0.7442 m 4.099,0.059 v -0.8031 m -0.0806,4.1671 h 4.193 m -17.8852,2.5301 h 2.6789" />
    <path
       id="path983"
       style="fill:#ff0000;fill-opacity:0;stroke:#ff0000;stroke-width:0.1;stroke-linecap:round;stroke-linejoin:round;stroke-opacity:1"
       d="m 59.9216,148.0414 h 4.193 m -1.8604,-9.6147 v 6.2507 m 0,0 h -2.252 m -13.7728,5.8941 h 2.6789 m 11.0939,-6.6972 a 1.25,1.25 0 0 0 -2.5,0 m -8.5939,3.423 h -2.6789 m 9.6738,-3.4231 a 2.2324,2.2324 0 0 0 -4.4648,0 m 12.6762,4.1672 v -9.6147 m -4.1124,6.2507 v -0.8031 m -4.099,-1e-4 v 0.7442 m 8.2114,-6.1917 h -1.8604 m -2.3326,10.5077 v -0.893 m -11.0133,2.5301 v 0.2976 m 0,-4.4648 v 0.893 m 2.5301,-3.4231 v 2.5301 m 6.0638,-1.7859 h -1.599 m 2.0836,6.2507 a 2.4334,2.4334 0 0 0 1.9348,-1.9347 m -2.4194,-5.0601 v 0.7441 m -11.2728,2.6789 v 3.2742 m 2.6789,0.2976 h 9.0785 m -6.5484,-4.4648 h -2.5301" />
    <path
       style="fill:#ff0000;fill-opacity:0;stroke:#ff0000;stroke-width:0.1;stroke-linecap:round;stroke-linejoin:round;stroke-opacity:1"
       d="m 219.1504,150.8714 -5.0267,2.9022 -0.893,-1.5467 5.0267,-2.9021 z"
       id="path771" />
    <path
       style="fill:#ff0000;fill-opacity:0;stroke:#ff0000;stroke-width:0.1;stroke-linecap:round;stroke-linejoin:round;stroke-opacity:1"
       d="m 228.9274,161.218 -2.9644,1.7115 -3.7207,-6.4445 2.9644,-1.7115 z"
       id="path84" />
    <path
       id="circle72"
       style="fill:#ff0000;fill-opacity:0;stroke:#ff0000;stroke-width:0.1;stroke-linecap:round;stroke-linejoin:round"
       d="m 219.3326,157.31709 a 1.25,1.25 0 0 1 -1.25,1.25 1.25,1.25 0 0 1 -1.25,-1.25 1.25,1.25 0 0 1 1.25,-1.25 1.25,1.25 0 0 1 1.25,1.25 z" />
    <path
       id="circle654"
       style="fill:#ff0000;fill-opacity:0;stroke:#ff0000;stroke-width:0.1;stroke-linecap:round;stroke-linejoin:round"
       d="m 212.02761,168.0665 a 2.2,2.2 0 0 1 -2.2,2.2 2.2,2.2 0 0 1 -2.2,-2.2 2.2,2.2 0 0 1 2.2,-2.2 2.2,2.2 0 0 1 2.2,2.2 z" />
    <path
       id="circle491"
       style="fill:#ff0000;fill-opacity:0;stroke:#ff0000;stroke-width:0.1;stroke-linecap:round;stroke-linejoin:round"
       d="m 211.3926,145.84151 a 2.2,2.2 0 0 1 -2.2,2.2 2.2,2.2 0 0 1 -2.2,-2.2 2.2,2.2 0 0 1 2.2,-2.2 2.2,2.2 0 0 1 2.2,2.2 z" />
    <path
       style="fill:#ff0000;fill-opacity:0;stroke:#ff0000;stroke-width:0.1;stroke-linecap:round;stroke-linejoin:round;stroke-opacity:1"
       d="m 245.4374,151.6931 -2.9644,1.7115 -3.7207,-6.4445 2.9644,-1.7115 z"
       id="path165" />
    <path
       style="fill:#ff0000;fill-opacity:0;stroke:#ff0000;stroke-width:0.1;stroke-linecap:round;stroke-linejoin:round;stroke-opacity:1"
       d="m 234.3904,141.9814 -5.0267,2.9022 -0.893,-1.5467 5.0267,-2.9021 z"
       id="path353" />
    <path
       id="circle762"
       style="fill:#ff0000;fill-opacity:0;stroke:#ff0000;stroke-width:0.1;stroke-linecap:round;stroke-linejoin:round"
       d="m 235.8427,147.79221 a 1.25,1.25 0 0 1 -1.25,1.25 1.25,1.25 0 0 1 -1.25,-1.25 1.25,1.25 0 0 1 1.25,-1.25 1.25,1.25 0 0 1 1.25,1.25 z" />
    <path
       id="path993"
       style="fill:#ff0000;fill-opacity:0;stroke:#ff0000;stroke-width:0.1;stroke-linecap:round;stroke-linejoin:round;stroke-opacity:1"
       d="m 221.7388,163.6498 -0.6444,0.372 m -3.7791,-2.9737 -1.265,-2.1911 m -4.9484,-0.2364 1.3395,2.32 m 11.3469,6.259 a 1.2500158,1.2500158 0 1 0 -1.25,-2.1651 m -3.1725,4.6253 0.7733,-0.4464 m 2.3992,-4.1789 -0.6444,0.372 m -6.617,-6.103 -1.3394,-2.32 m 6.2016,12.2299 1.2651,2.1911 m 0.4897,-5.998 -0.7995,-1.3847 m -7.1569,-7.0383 -2.8356,1.6371 m 5.621,10.3311 a 2.4334,2.4334 0 0 0 2.6429,0.7081 m -3.3155,-10.8028 -0.7734,0.4465 m -3.0933,1.7859 4.5393,7.8623 m 6.2921,-1.3057 0.7733,-0.4464 m -2.0495,-3.5498 a 2.2324302,2.2324302 0 0 0 -2.2324,-3.8667 m 4.7333,9.9843 -1.2247,-2.1214 m -1.6108,3.7585 2.8355,-1.6371 m -4.7333,-9.9843 -2.1911,1.265 m -4.8739,-0.1075 -0.2578,0.1488" />
    <path
       id="path973"
       style="fill:#ff0000;fill-opacity:0;stroke:#ff0000;stroke-width:0.1;stroke-linecap:round;stroke-linejoin:round;stroke-opacity:1"
       d="m 233.2329,159.4268 a 2.4334,2.4334 0 0 0 2.6429,0.7081 m -5.4283,-12.6763 -2.8356,1.6371 m 1.3395,2.32 -0.2578,0.1489 m 11.6047,6.1101 a 1.2500158,1.2500158 0 1 0 -1.25,-2.1651 m -0.6444,0.372 -0.7995,-1.3847 m -9.9925,-5.4012 1.3395,2.32 m 7.065,-1.1575 -2.1911,1.265 m 4.4235,2.6017 a 2.2324302,2.2324302 0 1 0 -2.2324,-3.8667 m 2.2324,3.8667 -0.6444,0.372 m 1.9206,3.6242 0.7733,-0.4464 m 0.4514,2.5678 -1.2247,-2.1214 m -2.8759,1.5674 1.2651,2.1911 m -4.0889,-10.3564 -1.265,-2.1911 m 6.488,6.1775 -0.6444,0.372 m -0.4897,5.998 2.8355,-1.6371 m -8.9628,-10.4639 -1.3394,-2.32 m -1.7539,4.106 4.5393,7.8622 m -0.6726,-10.0947 -0.7734,0.4465 m 4.0889,10.3563 0.7733,-0.4464" />
    <path
       style="fill:#ff0000;fill-opacity:0;stroke:#ff0000;stroke-width:0.1;stroke-linecap:round;stroke-linejoin:round;stroke-opacity:1"
       d="m 258.177,153.6699 h 7.4414 v 3.4231 h -7.4414 z"
       id="path590" />
    <path
       id="circle74"
       style="fill:#ff0000;fill-opacity:0;stroke:#ff0000;stroke-width:0.1;stroke-linecap:round;stroke-linejoin:round"
       d="m 268.2276,149.6515 a 1.25,1.25 0 0 1 -1.25,1.25 1.25,1.25 0 0 1 -1.25,-1.25 1.25,1.25 0 0 1 1.25,-1.25 1.25,1.25 0 0 1 1.25,1.25 z" />
    <path
       style="fill:#ff0000;fill-opacity:0;stroke:#ff0000;stroke-width:0.1;stroke-linecap:round;stroke-linejoin:round;stroke-opacity:1"
       d="m 273.5062,143.3908 h 3.4231 v 7.4414 h -3.4231 z"
       id="path117" />
    <path
       style="fill:#ff0000;fill-opacity:0;stroke:#ff0000;stroke-width:0.1;stroke-linecap:round;stroke-linejoin:round;stroke-opacity:1"
       d="m 234.156,76.2048 h 2.2324 v 30.2865 h -2.2324 z"
       id="path493" />
    <path
       style="fill:#ff0000;fill-opacity:0;stroke:#ff0000;stroke-width:0.1;stroke-linecap:round;stroke-linejoin:round;stroke-opacity:1"
       d="m 218.9011,76.2048 h 2.2325 v 30.2865 h -2.2325 z"
       id="path922" />
    <path
       id="circle526"
       style="fill:#ff0000;fill-opacity:0;stroke:#ff0000;stroke-width:0.1;stroke-linecap:round;stroke-linejoin:round"
       d="m 211.3926,77.261497 a 2.2,2.2 0 0 1 -2.2,2.200001 2.2,2.2 0 0 1 -2.2,-2.200001 2.2,2.2 0 0 1 2.2,-2.2 2.2,2.2 0 0 1 2.2,2.2 z" />
    <path
       style="fill:#ff0000;fill-opacity:0;stroke:#ff0000;stroke-width:0.1;stroke-linecap:round;stroke-linejoin:round;stroke-opacity:1"
       d="m 222.2498,113.1886 h 9.525 v 1.7859 h -9.525 z"
       id="path166" />
    <path
       id="path988"
       style="fill:#ff0000;fill-opacity:0;stroke:#ff0000;stroke-width:0.1;stroke-linecap:round;stroke-linejoin:round;stroke-opacity:1"
       d="m 215.5153,116.2396 v -4.2416 m 3.3486,-2.5301 v 6.7717 m -11.8318,-6.7717 h 11.8318 m 0,6.7717 h -3.3486 m -8.4832,-4.2416 v -2.5301 m 8.4832,2.5301 h -8.4832" />
    <path
       id="path909"
       style="fill:#ff0000;fill-opacity:0;stroke:#ff0000;stroke-width:0.1;stroke-linecap:round;stroke-linejoin:round;stroke-opacity:1"
       d="m 211.9806,100.0917 v -9.525 m 0,0 h -2.9765 m 0,9.525 h 2.9765 m -2.9765,-9.525 -1.9348,1.9348 m 0,5.5066 1.9348,2.0836 m -1.9348,-7.5902 v 5.5066" />
    <path
       style="fill:#ff0000;fill-opacity:0;stroke:#ff0000;stroke-width:0.1;stroke-linecap:round;stroke-linejoin:round;stroke-opacity:1"
       d="m 245.7646,104.2192 h 1.7859 v 5.8043 h -1.7859 z"
       id="path483" />
    <path
       style="fill:#ff0000;fill-opacity:0;stroke:#ff0000;stroke-width:0.1;stroke-linecap:round;stroke-linejoin:round;stroke-opacity:1"
       d="m 245.7646,123.2692 h 1.7859 v 5.8043 h -1.7859 z"
       id="path611" />
    <path
       id="circle402"
       style="fill:#ff0000;fill-opacity:0;stroke:#ff0000;stroke-width:0.1;stroke-linecap:round;stroke-linejoin:round"
       d="m 245.0476,128.06149 a 2.2,2.2 0 0 1 -2.2,2.2 2.2,2.2 0 0 1 -2.2,-2.2 2.2,2.2 0 0 1 2.2,-2.2 2.2,2.2 0 0 1 2.2,2.2 z" />
    <path
       style="fill:#ff0000;fill-opacity:0;stroke:#ff0000;stroke-width:0.1;stroke-linecap:round;stroke-linejoin:round;stroke-opacity:1"
       d="m 245.7646,85.8042 h 1.7859 v 5.8043 h -1.7859 z"
       id="path868" />
    <path
       id="circle787"
       style="fill:#ff0000;fill-opacity:0;stroke:#ff0000;stroke-width:0.1;stroke-linecap:round;stroke-linejoin:round"
       d="m 258.38259,77.261497 a 2.2,2.2 0 0 1 -2.2,2.200001 2.2,2.2 0 0 1 -2.2,-2.200001 2.2,2.2 0 0 1 2.2,-2.2 2.2,2.2 0 0 1 2.2,2.2 z" />
    <path
       style="fill:#ff0000;fill-opacity:0;stroke:#ff0000;stroke-width:0.1;stroke-linecap:round;stroke-linejoin:round;stroke-opacity:1"
       d="m 252.4618,85.0601 h 7.4414 v 3.423 h -7.4414 z"
       id="path490" />
    <path
       style="fill:#ff0000;fill-opacity:0;stroke:#ff0000;stroke-width:0.1;stroke-linecap:round;stroke-linejoin:round;stroke-opacity:1"
       d="m 271.5118,79.9801 h 7.4414 v 3.423 h -7.4414 z"
       id="path582" />
    <path
       id="circle680"
       style="fill:#ff0000;fill-opacity:0;stroke:#ff0000;stroke-width:0.1;stroke-linecap:round;stroke-linejoin:round"
       d="m 271.40259,87.421501 a 1.25,1.25 0 0 1 -1.25,1.25 1.25,1.25 0 0 1 -1.25,-1.25 1.25,1.25 0 0 1 1.25,-1.25 1.25,1.25 0 0 1 1.25,1.25 z" />
    <path
       style="fill:#ff0000;fill-opacity:0;stroke:#ff0000;stroke-width:0.1;stroke-linecap:round;stroke-linejoin:round;stroke-opacity:1"
       d="m 264.8146,81.9942 h 1.7859 v 5.8043 h -1.7859 z"
       id="path417" />
    <path
       id="circle765"
       style="fill:#ff0000;fill-opacity:0;stroke:#ff0000;stroke-width:0.1;stroke-linecap:round;stroke-linejoin:round"
       d="m 252.3526,92.501503 a 1.25,1.25 0 0 1 -1.25,1.25 1.25,1.25 0 0 1 -1.25,-1.25 1.25,1.25 0 0 1 1.25,-1.25 1.25,1.25 0 0 1 1.25,1.25 z" />
    <path
       style="fill:#ff0000;fill-opacity:0;stroke:#ff0000;stroke-width:0.1;stroke-linecap:round;stroke-linejoin:round;stroke-opacity:1"
       d="m 271.5118,99.0301 h 7.4414 v 3.423 h -7.4414 z"
       id="path259" />
    <path
       id="circle128"
       style="fill:#ff0000;fill-opacity:0;stroke:#ff0000;stroke-width:0.1;stroke-linecap:round;stroke-linejoin:round"
       d="m 271.40259,106.4715 a 1.25,1.25 0 0 1 -1.25,1.25 1.25,1.25 0 0 1 -1.25,-1.25 1.25,1.25 0 0 1 1.25,-1.25 1.25,1.25 0 0 1 1.25,1.25 z" />
    <path
       style="fill:#ff0000;fill-opacity:0;stroke:#ff0000;stroke-width:0.1;stroke-linecap:round;stroke-linejoin:round;stroke-opacity:1"
       d="m 264.8146,101.0442 h 1.7859 v 5.8043 h -1.7859 z"
       id="path936" />
    <path
       style="fill:#ff0000;fill-opacity:0;stroke:#ff0000;stroke-width:0.1;stroke-linecap:round;stroke-linejoin:round;stroke-opacity:1"
       d="m 252.4618,104.1101 h 7.4414 v 3.423 h -7.4414 z"
       id="path874" />
    <path
       id="circle662"
       style="fill:#ff0000;fill-opacity:0;stroke:#ff0000;stroke-width:0.1;stroke-linecap:round;stroke-linejoin:round"
       d="m 252.3526,111.5515 a 1.25,1.25 0 0 1 -1.25,1.25 1.25,1.25 0 0 1 -1.25,-1.25 1.25,1.25 0 0 1 1.25,-1.25 1.25,1.25 0 0 1 1.25,1.25 z" />
    <path
       style="fill:#ff0000;fill-opacity:0;stroke:#ff0000;stroke-width:0.1;stroke-linecap:round;stroke-linejoin:round;stroke-opacity:1"
       d="m 271.5118,118.0801 h 7.4414 v 3.423 h -7.4414 z"
       id="path839" />
    <path
       style="fill:#ff0000;fill-opacity:0;stroke:#ff0000;stroke-width:0.1;stroke-linecap:round;stroke-linejoin:round;stroke-opacity:1"
       d="m 264.8146,118.8242 h 1.7859 v 5.8043 h -1.7859 z"
       id="path56" />
    <path
       id="circle652"
       style="fill:#ff0000;fill-opacity:0;stroke:#ff0000;stroke-width:0.1;stroke-linecap:round;stroke-linejoin:round"
       d="m 271.40259,125.5215 a 1.25,1.25 0 0 1 -1.25,1.25 1.25,1.25 0 0 1 -1.25,-1.25 1.25,1.25 0 0 1 1.25,-1.25 1.25,1.25 0 0 1 1.25,1.25 z" />
    <path
       style="fill:#ff0000;fill-opacity:0;stroke:#ff0000;stroke-width:0.1;stroke-linecap:round;stroke-linejoin:round;stroke-opacity:1"
       d="m 252.4619,123.1601 h 7.4414 v 3.4231 h -7.4414 z"
       id="path190" />
    <path
       id="circle467"
       style="fill:#ff0000;fill-opacity:0;stroke:#ff0000;stroke-width:0.1;stroke-linecap:round;stroke-linejoin:round"
       d="m 252.35271,130.60159 a 1.25,1.25 0 0 1 -1.25,1.25 1.25,1.25 0 0 1 -1.25,-1.25 1.25,1.25 0 0 1 1.25,-1.25 1.25,1.25 0 0 1 1.25,1.25 z" />
    <path
       id="path932"
       style="fill:#ff0000;fill-opacity:0;stroke:#ff0000;stroke-width:0.1;stroke-linecap:round;stroke-linejoin:round;stroke-opacity:1"
       d="m 258.415,92.5015 v 0.7441 m 0,-0.7441 a 2.23245,2.23245 0 0 0 -4.4649,0 m -5.209,3.423 v 3.2743 m 5.209,-6.6973 v 2.5301 m -2.5301,0 v 0.8929 m 13.5434,-2.53 h -2.4495 m 2.4495,3.2742 v -3.2742 m -2.4495,-0.893 a 1.25,1.25 0 0 0 -2.5,0 m -8.5939,6.9949 h 9.0786 M 251.42,95.9245 h -2.6789 m 5.209,-0.8929 H 251.42 m 0,4.1672 v 0.2976 m -2.6789,-0.2976 h 2.6789 m 11.0939,-5.8043 v -0.893 m -2.5,0.7441 h -1.5989 m 4.0183,4.316 v -0.8929 m 0,0 h 2.5301 m -4.4648,2.8277 a 2.4336,2.4336 0 0 0 1.9347,-1.9348 m -2.4194,-5.0601 v 0.7441" />
    <path
       id="path943"
       style="fill:#ff0000;fill-opacity:0;stroke:#ff0000;stroke-width:0.1;stroke-linecap:round;stroke-linejoin:round;stroke-opacity:1"
       d="m 251.42,114.9745 h -2.6789 m 0,0 v 3.2743 m 2.6789,-4.1672 v 0.8929 m 6.995,-3.423 a 2.23245,2.23245 0 0 0 -4.4649,0 m 6.5485,6.9949 a 2.4334,2.4334 0 0 0 1.9347,-1.9348 m 0,-0.8929 h 2.5301 m -6.5484,-4.1672 v 0.7441 m 4.0989,-0.7441 a 1.25,1.25 0 0 0 -2.5,0 m -11.2728,6.6973 h 2.6789 m 0,0 v 0.2976 m 13.5434,-6.1019 h -2.4495 m -8.5638,-0.893 v 2.5301 m 6.0638,-1.786 h -1.5989 m 1.5989,-0.7441 v 0.7441 m 2.4194,4.316 v -0.8929 m -8.4832,-1.6371 H 251.42 m 11.0939,-1.6371 v -0.893 m -11.0939,6.9949 h 9.0786 m 4.4648,-2.8277 v -3.2742" />
    <path
       id="path948"
       style="fill:#ff0000;fill-opacity:0;stroke:#ff0000;stroke-width:0.1;stroke-linecap:round;stroke-linejoin:round;stroke-opacity:1"
       d="m 251.4201,137.5965 h 9.0786 m -9.0786,-4.4649 v 0.893 m 2.5301,-3.4231 v 2.5301 m 8.5638,-1.6371 v -0.8929 m -8.5638,2.53 h -2.5301 m 8.5939,-2.53 v 0.7441 m 2.4194,3.423 h 2.5301 m 0,0 v -3.2742 m -13.5434,2.5301 h -2.6789 m 2.6789,3.2742 v 0.2977 m 8.5939,-6.2508 h -1.5989 m -9.6739,2.6789 v 3.2742 m 11.7575,0.2977 a 2.4333,2.4333 0 0 0 1.9347,-1.9348 m -4.0183,-5.0602 a 2.23245,2.23245 0 0 0 -4.4649,0 m 4.4649,0 v 0.7442 m 4.0183,4.316 v -0.893 m 0.0806,-4.1671 a 1.25,1.25 0 0 0 -2.5,0 m 4.9495,0.8929 h -2.4495 m -13.7728,5.8043 h 2.6789" />
    <path
       id="path985"
       style="fill:#ff0000;fill-opacity:0;stroke:#ff0000;stroke-width:0.1;stroke-linecap:round;stroke-linejoin:round;stroke-opacity:1"
       d="m 272.4048,146.2284 v -5.8043 m -12.7395,9.2275 a 2.23245,2.23245 0 0 0 4.4649,0 m -12.6506,-3.4232 h 1.8752 m 6.3105,3.4232 v -0.7442 m -4.0183,-4.316 -2.2922,-2e-4 m 17.1152,-1.637 -3.8098,1e-4 m 3.8098,-2.5302 v 2.5301 m -17.1152,3.2742 v 2.5302 m 4.2269,-6.1019 a 2.4333,2.4333 0 0 0 -1.9347,1.9347 m 2.4194,5.0601 v -0.7441 m 8.5938,-6.2507 h -9.0785 m -2.0153,6.9948 a 1.25,1.25 0 0 0 2.5,0 m 14.3384,-9.2274 H 270.47 m -3.8098,5.8044 5.7446,-1e-4 m -19.05,2.5302 h 2.2116 m 8.5638,0.893 v -2.5301 m -8.5638,1.6371 v 0.8929 m 11.0938,-2.53 v -0.893 m -8.5938,2.6789 h 1.5989 m 4.4649,-1.7859 h 2.53 m -13.3054,-2.5303 v -4.1671 m 0,0 h -1.8752 m 0,0 v 5.8043 m 15.1806,-3.2741 v -0.2976" />
    <path
       id="circle521"
       style="fill:#ff0000;fill-opacity:0;stroke:#ff0000;stroke-width:0.1;stroke-linecap:round;stroke-linejoin:round"
       d="m 282.19769,152.19141 a 1.25,1.25 0 0 1 -1.25,1.25 1.25,1.25 0 0 1 -1.25,-1.25 1.25,1.25 0 0 1 1.25,-1.25 1.25,1.25 0 0 1 1.25,1.25 z" />
    <path
       id="path850"
       style="fill:#ff0000;fill-opacity:0;stroke:#ff0000;stroke-width:0.1;stroke-linecap:round;stroke-linejoin:round;stroke-opacity:1"
       d="m 281.8406,138.3307 v 2.4495 m 6.102,2.0153 a 2.4334,2.4334 0 0 0 -1.9348,-1.9347 m 1.9348,11.0132 v -9.0785 m -2.8278,-1.9347 v -2.5301 m -1.6371,11.0133 v 2.53 m -2.5301,-6.9949 a 2.23245,2.23245 0 0 0 0,4.4649 m 0.7442,-6.0638 v 1.5989 m 5.9531,9.6738 v -2.6789 m 0,0 h 0.2977 m -6.9949,-8.5938 h 0.7441 m 4.316,-2.4194 h -0.893 m -0.7441,11.0132 v 2.6789 m -3.4231,-5.2089 h 2.5301 m 0.893,5.2089 h 3.2742 m -5.8043,-13.7727 h -0.8929 m 2.53,11.0938 h 0.893 m -3.423,-11.0938 a 1.25,1.25 0 1 0 0,2.5 m -10e-5,1.5989 h 0.7442 m 3.423,-6.5484 h -3.2742" />
    <path
       id="circle551"
       style="fill:#ff0000;fill-opacity:0;stroke:#ff0000;stroke-width:0.1;stroke-linecap:round;stroke-linejoin:round"
       d="m 309.50259,125.5215 a 1.25,1.25 0 0 1 -1.25,1.25 1.25,1.25 0 0 1 -1.25,-1.25 1.25,1.25 0 0 1 1.25,-1.25 1.25,1.25 0 0 1 1.25,1.25 z" />
    <path
       style="fill:#ff0000;fill-opacity:0;stroke:#ff0000;stroke-width:0.1;stroke-linecap:round;stroke-linejoin:round;stroke-opacity:1"
       d="m 309.6118,118.0801 h 7.4414 v 3.423 h -7.4414 z"
       id="path531" />
    <path
       style="fill:#ff0000;fill-opacity:0;stroke:#ff0000;stroke-width:0.1;stroke-linecap:round;stroke-linejoin:round;stroke-opacity:1"
       d="m 290.5619,113.6351 h 7.4414 v 3.4231 h -7.4414 z"
       id="path386" />
    <path
       id="circle948"
       style="fill:#ff0000;fill-opacity:0;stroke:#ff0000;stroke-width:0.1;stroke-linecap:round;stroke-linejoin:round"
       d="m 290.4527,121.0766 a 1.25,1.25 0 0 1 -1.25,1.25 1.25,1.25 0 0 1 -1.25,-1.25 1.25,1.25 0 0 1 1.25,-1.25 1.25,1.25 0 0 1 1.25,1.25 z" />
    <path
       style="fill:#ff0000;fill-opacity:0;stroke:#ff0000;stroke-width:0.1;stroke-linecap:round;stroke-linejoin:round;stroke-opacity:1"
       d="m 283.8646,115.6492 h 1.7859 v 5.8043 h -1.7859 z"
       id="path835" />
    <path
       style="fill:#ff0000;fill-opacity:0;stroke:#ff0000;stroke-width:0.1;stroke-linecap:round;stroke-linejoin:round;stroke-opacity:1"
       d="m 309.6119,99.0301 h 7.4414 v 3.4231 h -7.4414 z"
       id="path667" />
    <path
       style="fill:#ff0000;fill-opacity:0;stroke:#ff0000;stroke-width:0.1;stroke-linecap:round;stroke-linejoin:round;stroke-opacity:1"
       d="m 309.6118,79.9801 h 7.4414 v 3.423 h -7.4414 z"
       id="path195" />
    <path
       id="circle730"
       style="fill:#ff0000;fill-opacity:0;stroke:#ff0000;stroke-width:0.1;stroke-linecap:round;stroke-linejoin:round"
       d="m 309.50259,87.421501 a 1.25,1.25 0 0 1 -1.25,1.25 1.25,1.25 0 0 1 -1.25,-1.25 1.25,1.25 0 0 1 1.25,-1.25 1.25,1.25 0 0 1 1.25,1.25 z" />
    <path
       id="circle748"
       style="fill:#ff0000;fill-opacity:0;stroke:#ff0000;stroke-width:0.1;stroke-linecap:round;stroke-linejoin:round"
       d="m 309.50269,106.4716 a 1.25,1.25 0 0 1 -1.25,1.25 1.25,1.25 0 0 1 -1.25,-1.25 1.25,1.25 0 0 1 1.25,-1.25 1.25,1.25 0 0 1 1.25,1.25 z" />
    <path
       style="fill:#ff0000;fill-opacity:0;stroke:#ff0000;stroke-width:0.1;stroke-linecap:round;stroke-linejoin:round;stroke-opacity:1"
       d="m 290.5618,75.5351 h 7.4414 v 3.423 h -7.4414 z"
       id="path416" />
    <path
       id="circle462"
       style="fill:#ff0000;fill-opacity:0;stroke:#ff0000;stroke-width:0.1;stroke-linecap:round;stroke-linejoin:round"
       d="m 290.45261,82.976501 a 1.25,1.25 0 0 1 -1.25,1.25 1.25,1.25 0 0 1 -1.25,-1.25 1.25,1.25 0 0 1 1.25,-1.25 1.25,1.25 0 0 1 1.25,1.25 z" />
    <path
       style="fill:#ff0000;fill-opacity:0;stroke:#ff0000;stroke-width:0.1;stroke-linecap:round;stroke-linejoin:round;stroke-opacity:1"
       d="m 283.8646,77.5492 h 1.7859 v 5.8043 h -1.7859 z"
       id="path540" />
    <path
       style="fill:#ff0000;fill-opacity:0;stroke:#ff0000;stroke-width:0.1;stroke-linecap:round;stroke-linejoin:round;stroke-opacity:1"
       d="m 290.5619,94.5851 h 7.4414 v 3.4231 h -7.4414 z"
       id="path992" />
    <path
       id="circle44"
       style="fill:#ff0000;fill-opacity:0;stroke:#ff0000;stroke-width:0.1;stroke-linecap:round;stroke-linejoin:round"
       d="m 290.4527,102.0266 a 1.25,1.25 0 0 1 -1.25,1.25 1.25,1.25 0 0 1 -1.25,-1.25 1.25,1.25 0 0 1 1.25,-1.25 1.25,1.25 0 0 1 1.25,1.25 z" />
    <path
       style="fill:#ff0000;fill-opacity:0;stroke:#ff0000;stroke-width:0.1;stroke-linecap:round;stroke-linejoin:round;stroke-opacity:1"
       d="m 283.8646,96.5992 h 1.7859 v 5.8043 h -1.7859 z"
       id="path206" />
    <path
       style="fill:#ff0000;fill-opacity:0;stroke:#ff0000;stroke-width:0.1;stroke-linecap:round;stroke-linejoin:round;stroke-opacity:1"
       d="m 328.6618,88.8701 h 7.4414 v 3.423 h -7.4414 z"
       id="path950" />
    <path
       id="circle763"
       style="fill:#ff0000;fill-opacity:0;stroke:#ff0000;stroke-width:0.1;stroke-linecap:round;stroke-linejoin:round"
       d="m 328.55261,96.311501 a 1.25,1.25 0 0 1 -1.25,1.25 1.25,1.25 0 0 1 -1.25,-1.25 1.25,1.25 0 0 1 1.25,-1.25 1.25,1.25 0 0 1 1.25,1.25 z" />
    <path
       style="fill:#ff0000;fill-opacity:0;stroke:#ff0000;stroke-width:0.1;stroke-linecap:round;stroke-linejoin:round;stroke-opacity:1"
       d="m 328.6618,107.9201 h 7.4414 v 3.423 h -7.4414 z"
       id="path807" />
    <path
       id="circle186"
       style="fill:#ff0000;fill-opacity:0;stroke:#ff0000;stroke-width:0.1;stroke-linecap:round;stroke-linejoin:round"
       d="m 328.55261,115.3615 a 1.25,1.25 0 0 1 -1.25,1.25 1.25,1.25 0 0 1 -1.25,-1.25 1.25,1.25 0 0 1 1.25,-1.25 1.25,1.25 0 0 1 1.25,1.25 z" />
    <path
       style="fill:#ff0000;fill-opacity:0;stroke:#ff0000;stroke-width:0.1;stroke-linecap:round;stroke-linejoin:round;stroke-opacity:1"
       d="m 328.6618,126.9701 h 7.4414 v 3.423 h -7.4414 z"
       id="path528" />
    <path
       id="circle483"
       style="fill:#ff0000;fill-opacity:0;stroke:#ff0000;stroke-width:0.1;stroke-linecap:round;stroke-linejoin:round"
       d="m 328.55261,134.4115 a 1.25,1.25 0 0 1 -1.25,1.25 1.25,1.25 0 0 1 -1.25,-1.25 1.25,1.25 0 0 1 1.25,-1.25 1.25,1.25 0 0 1 1.25,1.25 z" />
    <path
       id="path960"
       style="fill:#ff0000;fill-opacity:0;stroke:#ff0000;stroke-width:0.1;stroke-linecap:round;stroke-linejoin:round;stroke-opacity:1"
       d="m 281.5639,88.3145 v -0.893 m -11.0938,6.9949 h 9.0785 m 0,0 a 2.4334,2.4334 0 0 0 1.9347,-1.9348 m -4.0183,-5.0601 v 0.7441 m -9.6739,2.6789 v 3.2743 m 11.2728,-6.6973 v 0.7441 m -8.5938,5.9532 v 0.2976 m 0,-3.5719 h -2.679 m 13.7728,-3.423 a 1.25,1.25 0 0 0 -2.5,0 m 4.9495,0.893 h -2.4495 m -0.0806,3.2742 h 2.5301 m 0,0 v -3.2742 m -11.0133,1.6371 h -2.53 m 6.9949,-2.5301 a 2.23245,2.23245 0 0 0 -4.4649,0 m -2.53,2.5301 v 0.8929 m 2.53,-3.423 v 2.5301 m -5.209,4.1672 h 2.679 m 11.0132,-1.6372 v -0.8929 m -2.4194,-3.4231 h -1.5989" />
    <path
       id="path977"
       style="fill:#ff0000;fill-opacity:0;stroke:#ff0000;stroke-width:0.1;stroke-linecap:round;stroke-linejoin:round;stroke-opacity:1"
       d="m 273.0001,106.4715 v 2.5301 m 6.0638,-2.5301 v 0.7441 m 2.4194,4.316 v -0.8929 m -13.6922,2.5301 h 2.679 m 0,-3.2743 h -2.679 m 16.2223,0.7442 v -3.2742 m -2.4495,0 v -0.893 m -11.0938,6.9949 h 9.0785 m 1.9347,-2.8277 h 2.5301 m -6.5484,-4.1672 v 0.7441 m -9.6739,2.6789 v 3.2743 m 9.6739,-6.6973 a 2.23245,2.23245 0 0 0 -4.4649,0 m -2.53,2.5301 v 0.8929 m 13.5433,-2.53 h -2.4495 m 0,-0.893 a 1.25,1.25 0 0 0 -2.5,0 m -8.5938,6.6973 v 0.2976 m 2.53,-4.4648 h -2.53 m 9.0785,4.4648 a 2.4334,2.4334 0 0 0 1.9347,-1.9348 m -2.4194,-4.316 h -1.5989" />
    <path
       id="path979"
       style="fill:#ff0000;fill-opacity:0;stroke:#ff0000;stroke-width:0.1;stroke-linecap:round;stroke-linejoin:round;stroke-opacity:1"
       d="m 267.7911,132.2188 h 2.679 m 11.0938,-6.6973 a 1.25,1.25 0 0 0 -2.5,0 m 2.4194,5.0601 v -0.8929 m -2.4194,-4.1672 v 0.7441 m -1.5989,-0.7441 v 0.7441 m 1.5989,0 h -1.5989 m 0,-0.7441 a 2.23245,2.23245 0 0 0 -4.4649,0 m 11.0133,4.1672 v -3.2742 m -2.4495,0 v -0.893 m -2.0153,6.9949 a 2.4334,2.4334 0 0 0 1.9347,-1.9348 m -11.0132,1.9348 h 9.0785 m -11.7575,-3.5719 v 3.2743 m 16.2223,-5.8043 h -2.4495 m -11.0938,5.8043 v 0.2976 m 2.53,-6.9949 v 2.5301 m -2.53,0.8929 h -2.679 m 2.679,-0.8929 v 0.8929 m 2.53,-0.8929 h -2.53 m 11.0132,1.6371 h 2.5301" />
    <path
       id="path994"
       style="fill:#ff0000;fill-opacity:0;stroke:#ff0000;stroke-width:0.1;stroke-linecap:round;stroke-linejoin:round;stroke-opacity:1"
       d="m 315.565,125.5215 a 2.23245,2.23245 0 0 0 -4.4649,0 m 8.4832,5.0601 v -0.8731 m -11.0133,-0.764 h -2.6789 m 2.6789,-0.8929 v 0.8929 m 2.5301,-3.423 v 2.5301 m 12.6504,7.3124 v -8.9495 m -17.8594,5.8043 h 2.6789 m 8.5939,-5.9532 h -1.5989 m -4.4649,1.786 H 308.57 m 0,4.4648 h 9.0786 m -0.4847,-6.9949 v 0.7441 m 4.8006,3.4429 v 5.6555 m 1.786,-8.9495 h -4.0866 m 2.3006,8.9495 h 1.786 M 308.57,132.2188 v 0.2976 m 9.0786,0 a 2.4334,2.4334 0 0 0 1.9347,-1.9348 m -4.0183,-5.0601 v 0.7441 m 4.0989,0.1489 v -0.893 m -13.7728,3.423 v 3.2743 m 13.6922,-2.5103 h 2.3812 m -2.3006,-4.187 a 1.25,1.25 0 0 0 -2.5,0" />
    <path
       id="path934"
       style="fill:#ff0000;fill-opacity:0;stroke:#ff0000;stroke-width:0.1;stroke-linecap:round;stroke-linejoin:round;stroke-opacity:1"
       d="m 296.5151,121.0765 v 0.7442 m 4.0989,0.1488 v -0.8929 m -13.7728,6.6972 h 2.6789 m 8.5939,-6.6972 v 0.7441 m -11.2728,2.6789 v 3.2742 m 13.7728,-6.6972 a 1.25,1.25 0 0 0 -2.5,0 m -6.0638,2.53 h -2.5301 m 11.0133,1.6371 h 4.1671 m -4.1671,0.893 v -0.893 m 4.1671,-9.5945 v 9.5945 m -8.1854,-4.1672 a 2.23245,2.23245 0 0 0 -4.4649,0 m -2.5301,6.6973 v 0.2977 m 0,-3.5719 h -2.6789 m 11.2728,-2.6789 h -1.5989 m 6.3995,-6.1715 h 1.7859 m -1.786,6.3202 -2.3005,1e-4 m 2.3005,-1e-4 1e-4,-6.3202 m -10.8644,5.4273 v 2.5301 m 6.5485,4.4649 a 2.4333,2.4333 0 0 0 1.9347,-1.9348 m -11.0133,1.9348 h 9.0786 m -9.0786,-4.4649 v 0.893" />
    <path
       id="path937"
       style="fill:#ff0000;fill-opacity:0;stroke:#ff0000;stroke-width:0.1;stroke-linecap:round;stroke-linejoin:round;stroke-opacity:1"
       d="m 323.7505,116.314 h -1.786 m -2.3812,-5.6555 h 2.3812 m -13.3944,-1.6569 v 0.893 m 0,0 h -2.6789 m 13.6922,1.6371 -10e-5,-0.8732 m 2.3812,5.6555 v -5.6555 m -6.3994,-4.187 a 2.23245,2.23245 0 0 0 -4.4649,0 m -5.209,3.4231 v 3.2742 m 13.7728,-6.6972 a 1.25,1.25 0 0 0 -2.5,0 m 6.5865,0.8929 h -4.0865 m -8.5638,1.6371 h -2.5301 m 9.0786,4.4649 a 2.4333,2.4333 0 0 0 1.9347,-1.9348 m -11.0133,1.9348 h 9.0786 m -11.7575,-0.2977 h 2.6789 m 15.1804,3.1452 v -8.9495 m -6.5865,-0.1488 h -1.5989 m -6.995,5.9531 v 0.2977 m 11.0939,-6.102 v -0.8929 m -4.0989,-10e-5 v 0.7442 m -4.4649,-0.7442 v 2.5301 m 6.0638,-2.53 v 0.7441" />
    <path
       id="path999"
       style="fill:#ff0000;fill-opacity:0;stroke:#ff0000;stroke-width:0.1;stroke-linecap:round;stroke-linejoin:round;stroke-opacity:1"
       d="m 292.0502,102.0265 v 2.5301 m 8.5638,-1.6371 v -0.8929 m -11.0939,6.6972 v 0.2977 m 13.3945,-12.4223 h 1.7859 m -8.1854,5.4273 a 2.23245,2.23245 0 0 0 -4.4649,0 m -2.5301,6.995 h 9.0786 m -0.4847,-6.9949 v 0.7441 m 0,0 h -1.5989 m -9.6739,5.9531 h 2.6789 m 6.995,-6.6973 v 0.7442 m -9.6739,2.6789 v 3.2742 m 2.6789,-3.2742 h -2.6789 m 16.0733,-2.5301 h -2.3005 m -2.0153,6.102 a 2.4333,2.4333 0 0 0 1.9347,-1.9348 m 0,-0.893 h 4.1671 m 0,-9.5945 v 9.5945 m -15.1804,-1.6371 v 0.893 m 13.3944,-2.5301 1e-4,-6.3203 m -10.8644,7.9574 h -2.5301 m 11.0939,-2.53 a 1.25,1.25 0 0 0 -2.5,0 m 2.4194,5.0601 v -0.893" />
    <path
       id="path963"
       style="fill:#ff0000;fill-opacity:0;stroke:#ff0000;stroke-width:0.1;stroke-linecap:round;stroke-linejoin:round;stroke-opacity:1"
       d="M 311.1001,89.9516 H 308.57 m 6.995,-2.5301 a 2.23245,2.23245 0 0 0 -4.4649,0 m 6.0638,0.7441 h -1.5989 m 4.0989,0.1489 v -0.893 m -0.0806,5.0601 V 91.6085 M 308.57,90.8445 h -2.6789 m 13.6922,0.764 h 2.3812 m -10.8644,-4.187 v 2.5301 m -2.5301,4.4648 h 9.0786 M 308.57,89.9516 v 0.8929 m -2.6789,0 v 3.2743 m 11.2728,-6.6973 v 0.7441 m -8.5939,5.9532 v 0.2976 m 15.1805,2.8476 v -8.9495 m 0,0 h -4.0866 m 2.3006,8.9495 v -5.6555 m 1.786,5.6555 h -1.786 m -16.0734,-3.1452 h 2.6789 m 11.0939,-6.6973 a 1.25,1.25 0 0 0 -2.5,0 m -1.5989,0 v 0.7441 m 2.0836,6.2508 a 2.4334,2.4334 0 0 0 1.9347,-1.9348" />
    <path
       id="path955"
       style="fill:#ff0000;fill-opacity:0;stroke:#ff0000;stroke-width:0.1;stroke-linecap:round;stroke-linejoin:round;stroke-opacity:1"
       d="m 286.8411,89.6738 h 2.6789 m 15.1805,-12.1246 v 9.5945 m -4.0866,-4.1672 a 1.25,1.25 0 0 0 -2.5,0 m 4.8007,-5.4273 h 1.7859 M 289.52,89.9714 h 9.0786 m -2.0836,-6.9949 a 2.23245,2.23245 0 0 0 -4.4649,0 m 0,0 v 2.5301 m 8.4832,1.6371 h 4.1672 m -6.5866,-4.1672 v 0.7441 m -8.5939,2.6789 h -2.6789 m 2.6789,3.2743 v 0.2976 m -2.6789,-3.5719 v 3.2743 m 11.7575,0.2976 a 2.4334,2.4334 0 0 0 1.9347,-1.9348 m -2.4194,-4.316 h -1.5989 m 4.0183,4.316 v -0.8929 m -8.4832,-1.6371 H 289.52 m 6.995,-2.5301 v 0.7441 m -6.995,1.786 v 0.8929 m 13.3945,-2.53 h -2.3006 m 2.3006,0 1e-4,-6.3203 m -2.3007,6.3203 v -0.893" />
    <path
       style="fill:#ff0000;fill-opacity:0;stroke:#ff0000;stroke-width:0.1;stroke-linecap:round;stroke-linejoin:round;stroke-opacity:1"
       d="m 347.7119,136.4951 h 7.4414 v 3.4231 h -7.4414 z"
       id="path750" />
    <path
       id="circle926"
       style="fill:#ff0000;fill-opacity:0;stroke:#ff0000;stroke-width:0.1;stroke-linecap:round;stroke-linejoin:round"
       d="m 353.63259,156.63651 a 2.2,2.2 0 0 1 -2.2,2.2 2.2,2.2 0 0 1 -2.2,-2.2 2.2,2.2 0 0 1 2.2,-2.2 2.2,2.2 0 0 1 2.2,2.2 z" />
    <path
       id="circle810"
       style="fill:#ff0000;fill-opacity:0;stroke:#ff0000;stroke-width:0.1;stroke-linecap:round;stroke-linejoin:round"
       d="m 347.60269,143.9366 a 1.25,1.25 0 0 1 -1.25,1.25 1.25,1.25 0 0 1 -1.25,-1.25 1.25,1.25 0 0 1 1.25,-1.25 1.25,1.25 0 0 1 1.25,1.25 z" />
    <path
       style="fill:#ff0000;fill-opacity:0;stroke:#ff0000;stroke-width:0.1;stroke-linecap:round;stroke-linejoin:round;stroke-opacity:1"
       d="m 347.7118,117.4451 h 7.4414 v 3.423 h -7.4414 z"
       id="path588" />
    <path
       id="circle957"
       style="fill:#ff0000;fill-opacity:0;stroke:#ff0000;stroke-width:0.1;stroke-linecap:round;stroke-linejoin:round"
       d="m 347.6026,124.8865 a 1.25,1.25 0 0 1 -1.25,1.25 1.25,1.25 0 0 1 -1.25,-1.25 1.25,1.25 0 0 1 1.25,-1.25 1.25,1.25 0 0 1 1.25,1.25 z" />
    <path
       id="circle180"
       style="fill:#ff0000;fill-opacity:0;stroke:#ff0000;stroke-width:0.1;stroke-linecap:round;stroke-linejoin:round"
       d="m 353.63259,89.3265 a 2.2,2.2 0 0 1 -2.2,2.2 2.2,2.2 0 0 1 -2.2,-2.2 2.2,2.2 0 0 1 2.2,-2.2 2.2,2.2 0 0 1 2.2,2.2 z" />
    <path
       style="fill:#ff0000;fill-opacity:0;stroke:#ff0000;stroke-width:0.1;stroke-linecap:round;stroke-linejoin:round;stroke-opacity:1"
       d="m 347.7118,98.3951 h 7.4414 v 3.423 h -7.4414 z"
       id="path396" />
    <path
       id="circle425"
       style="fill:#ff0000;fill-opacity:0;stroke:#ff0000;stroke-width:0.1;stroke-linecap:round;stroke-linejoin:round"
       d="m 347.6026,105.8365 a 1.25,1.25 0 0 1 -1.25,1.25 1.25,1.25 0 0 1 -1.25,-1.25 1.25,1.25 0 0 1 1.25,-1.25 1.25,1.25 0 0 1 1.25,1.25 z" />
    <path
       id="path995"
       style="fill:#ff0000;fill-opacity:0;stroke:#ff0000;stroke-width:0.1;stroke-linecap:round;stroke-linejoin:round;stroke-opacity:1"
       d="m 327.62,98.8416 v 0.8929 m 0,3.2743 v 0.2976 m 13.3945,2.8873 v -5.6555 M 327.62,99.7345 h -2.6789 m 9.6739,-3.423 v 0.7441 m 8.1854,9.1381 v -8.9892 m -4.0865,0 v -0.893 m -8.5638,2.5301 H 327.62 m 9.0786,4.4648 a 2.4334,2.4334 0 0 0 1.9347,-1.9348 m -4.0183,-5.0601 a 2.23245,2.23245 0 0 0 -4.4649,0 m -5.209,6.6973 h 2.6789 m 8.5939,-5.9532 h -1.5989 m 4.0989,-0.7441 a 1.25,1.25 0 0 0 -2.5,0 m 6.5865,0.893 h -4.0865 m -13.7728,2.53 v 3.2743 m 5.209,-6.6973 v 2.5301 m 12.6503,7.3521 h -1.7859 M 327.62,103.3064 h 9.0786 m -0.4847,-6.9949 v 0.7441 m 2.4194,4.316 v -0.8334 m 0,0 h 2.3812" />
    <path
       id="path894"
       style="fill:#ff0000;fill-opacity:0;stroke:#ff0000;stroke-width:0.1;stroke-linecap:round;stroke-linejoin:round;stroke-opacity:1"
       d="m 327.62,118.7845 h -2.6789 m 11.2728,-3.423 v 0.7441 m 2.5,-0.7441 a 1.25,1.25 0 0 0 -2.5,0 m 6.5865,9.8822 h -1.7859 m -2.3812,-5.6555 h 2.3812 m -13.3945,2.7682 h 9.0786 m 0,0 a 2.4334,2.4334 0 0 0 1.9347,-1.9348 m 2.3812,4.8221 v -5.6555 m -6.3995,-4.2267 v 0.7441 m -6.995,5.9532 v 0.2976 m 2.5301,-4.4648 H 327.62 m 15.1804,-1.6371 h -4.0865 m -13.7728,5.8043 h 2.6789 m -2.6789,-3.2743 v 3.2743 m 13.6922,-1.6372 v -0.8334 M 327.62,117.8916 v 0.8929 m 15.1804,6.4592 v -8.9892 m -4.0865,0 v -0.893 m -2.5,0.7441 h -1.5989 m 0,-0.7441 a 2.23245,2.23245 0 0 0 -4.4649,0 m 0,0 v 2.5301" />
    <path
       id="path965"
       style="fill:#ff0000;fill-opacity:0;stroke:#ff0000;stroke-width:0.1;stroke-linecap:round;stroke-linejoin:round;stroke-opacity:1"
       d="m 324.9411,141.1088 h 2.6789 m 15.1804,-5.8043 h -4.0865 m 4.0865,8.9891 h -1.7859 m -16.0734,-6.4591 v 3.2743 m 2.6789,-4.1672 v 0.8929 m 15.1804,6.4591 v -8.9891 m -4.0865,-0.893 a 1.25,1.25 0 0 0 -2.5,0 m -6.0638,2.5301 H 327.62 m 9.0786,4.4648 a 2.4334,2.4334 0 0 0 1.9347,-1.9348 M 327.62,137.8345 h -2.6789 m 11.2728,-3.423 v 0.7441 m -1.5989,-0.7441 v 0.7441 m -4.4649,-0.7441 v 2.5301 m 8.4832,1.6966 h 2.3812 m -13.3945,2.7682 h 9.0786 m -0.4847,-6.2508 h -1.5989 m 4.0989,0.1489 v -0.893 m -0.0806,5.0601 v -0.8334 m -4.0183,-4.2267 a 2.23245,2.23245 0 0 0 -4.4649,0 m 10.8644,9.8821 v -5.6554 m -13.3945,2.4706 v 0.2976" />
  </g>
</svg>
